<svg xmlns="http://www.w3.org/2000/svg" xmlns:xlink="http://www.w3.org/1999/xlink" x="0px" y="0px" viewBox="0 0 718.2 167.5" style="enable-background:new 0 0 718.2 167.5;" xml:space="preserve"><style type="text/css">	.st0{fill:#FFFFFF;}	.st1{fill:#005640;}	.st2{fill:#64B145;}	.st3{opacity:0.12;fill:#005640;}	.st4{fill:#F6E70F;}	.st5{fill:url(#SVGID_1_);}	.st6{fill:url(#SVGID_00000142171867661145693040000014687615029684683455_);}	.st7{fill:url(#SVGID_00000000224661967112011970000009512531039075019414_);}	.st8{opacity:0.65;fill:url(#SVGID_00000088129376906911344020000006387219798567546523_);}	.st9{fill:#626366;}	.st10{fill:#929497;}	.st11{fill:#939598;}	.st12{fill:#949699;}	.st13{fill:#95979A;}	.st14{fill:#96989B;}	.st15{fill:#97999C;}	.st16{fill:#989A9D;}	.st17{fill:#999B9E;}	.st18{fill:#9A9C9F;}	.st19{fill:#9B9DA0;}	.st20{fill:#9C9EA0;}	.st21{fill:#9D9FA1;}	.st22{fill:#9EA0A2;}	.st23{fill:#9FA1A3;}	.st24{fill:#A0A2A4;}	.st25{fill:#A1A3A5;}	.st26{fill:#A2A4A6;}	.st27{fill:#A3A4A7;}	.st28{fill:#A4A5A8;}	.st29{fill:#A5A6A9;}	.st30{fill:#A6A7AA;}	.st31{fill:#A7A8AB;}	.st32{fill:#A8A9AC;}	.st33{fill:#A9AAAD;}	.st34{fill:#AAABAE;}	.st35{fill:#ABACAF;}	.st36{fill:#ACADB0;}	.st37{fill:#ADAEB1;}	.st38{fill:#AEAFB2;}	.st39{fill:#AFB0B2;}	.st40{fill:#B0B1B3;}	.st41{fill:#B1B2B4;}	.st42{fill:#B2B3B5;}	.st43{fill:#B3B4B6;}	.st44{fill:#B4B5B7;}	.st45{fill:#B5B6B8;}	.st46{fill:#B6B7B9;}	.st47{fill:#B7B8BA;}	.st48{fill:#B8B9BB;}	.st49{fill:#B9BABC;}	.st50{fill:#BABBBD;}	.st51{fill:#BBBCBE;}	.st52{fill:#BCBDBF;}	.st53{fill:#BDBEC0;}	.st54{fill:#BEBFC1;}	.st55{fill:#BFC0C2;}	.st56{fill:#C0C1C3;}	.st57{fill:#C1C2C4;}	.st58{fill:#C2C3C5;}	.st59{fill:#C3C4C6;}	.st60{fill:#C4C5C7;}	.st61{fill:#C5C6C8;}	.st62{fill:#C6C7C9;}	.st63{fill:#C7C8CA;}	.st64{fill:#C8C9CB;}	.st65{fill:#C9CACC;}	.st66{fill:#CACBCD;}	.st67{fill:#CBCCCE;}	.st68{fill:#CCCDCF;}	.st69{fill:#CDCED0;}	.st70{fill:#CECFD1;}	.st71{fill:#CFD0D2;}	.st72{fill:#D0D1D3;}	.st73{fill:#D1D2D4;}	.st74{fill:#D2D3D5;}	.st75{fill:#D3D4D6;}	.st76{fill:#D4D5D7;}	.st77{fill:#D5D6D7;}	.st78{fill:#D6D7D8;}	.st79{fill:#D7D8D9;}	.st80{fill:#D8D9DA;}	.st81{fill:#D9DADB;}	.st82{fill:#DADBDC;}	.st83{fill:#DBDCDD;}	.st84{fill:#DCDDDE;}	.st85{fill:#DDDEDF;}	.st86{fill:#DEDFE0;}	.st87{fill:#DFE0E1;}	.st88{fill:#E0E1E2;}	.st89{fill:#E1E1E3;}	.st90{fill:#E2E2E4;}	.st91{fill:#E3E3E5;}	.st92{fill:#E4E4E6;}	.st93{fill:#E5E5E7;}	.st94{fill:#E6E6E8;}	.st95{fill:#E7E7E9;}	.st96{fill:#E8E8E9;}	.st97{fill:#E9E9EA;}	.st98{fill:#EAEAEB;}	.st99{fill:#EBEBEC;}	.st100{fill:#ECECED;}	.st101{fill:#EDEDEE;}	.st102{fill:#EEEEEF;}	.st103{fill:#EFEFF0;}	.st104{fill:#F0F0F1;}	.st105{fill:#F1F1F2;}	.st106{fill:url(#SVGID_00000129187919811275267560000006042685792075101343_);}	.st107{fill:url(#SVGID_00000038391605606701824810000006126760586925690047_);}			.st108{fill:url(#SVGID_00000165941908308284538370000012134917634373812390_);stroke:#BBBDBF;stroke-width:0.1111;stroke-miterlimit:10;}	.st109{fill:url(#SVGID_00000004536167614624109880000006171867394255705254_);}	.st110{fill:url(#SVGID_00000168116186000626906650000015263507731969379237_);}</style><g id="Layer_4"></g><g id="My_Allergy_Detective">	<g>		<path class="st0" d="M0,25.6h0.6L17,43l16-17.3h0.6v32.7h-8.1v-9.8c0-2.7,0.4-6.3,0.4-6.3s-2,3.2-4.2,5.5l-4.6,5h-0.6l-4.7-5   c-2.2-2.4-4.1-5.5-4.1-5.5s0.4,3.6,0.4,6.3v9.8H0V25.6z"></path>		<path class="st0" d="M49.4,47.8l-12-21.7H47l3.9,7.4c1.7,3.3,3,8.1,3,8.1s1.3-4.9,2.9-8.1l3.7-7.4h8.9L57.8,47.6v10.7h-8.4V47.8z"></path>		<polygon class="st0" points="80.6,11.7 81.1,11.7 112.3,47.7 143.2,11.7 143.7,11.7 143.7,77 134.2,77 134.2,35.5 112.3,61.6    111.9,61.6 90.1,35.5 90.1,77 80.6,77   "></polygon>		<polygon class="st0" points="676.9,24.8 702.5,24.8 702.5,32.9 686.3,32.9 686.3,40.7 699.8,40.7 699.8,48.4 686.3,48.4    686.3,52.8 703.2,52.8 703.2,60.9 676.9,60.9   "></polygon>		<path class="st0" d="M381.1,24.8h13c10.6,0,18.8,6.9,18.8,18c0,11-8.1,18-18.8,18h-13V24.8z M393.6,52.7c6.7,0,9.7-3.8,9.7-9.9   c0-6-3-9.9-9.7-9.9h-3.1v19.8H393.6z"></path>		<polygon class="st0" points="423.2,24.8 448.8,24.8 448.8,32.9 432.6,32.9 432.6,40.7 446.1,40.7 446.1,48.4 432.6,48.4    432.6,52.8 449.5,52.8 449.5,60.9 423.2,60.9   "></polygon>		<polygon class="st0" points="468.6,32.9 458.4,32.9 458.4,24.8 488.3,24.8 488.3,32.9 478.1,32.9 478.1,60.9 468.6,60.9   "></polygon>		<polygon class="st0" points="498.1,24.8 523.8,24.8 523.8,32.9 507.5,32.9 507.5,40.7 521.1,40.7 521.1,48.4 507.5,48.4    507.5,52.8 524.5,52.8 524.5,60.9 498.1,60.9   "></polygon>		<path class="st0" d="M533.2,42.8c0-10.7,7.6-18.7,18.7-18.7c7.2,0,12.2,2.8,15.4,7.9l-7.5,5c-1.6-2.6-3.9-4.6-8-4.6   c-5.7,0-9.1,4.4-9.1,10.4c0,5.9,3.5,10.4,9.3,10.4c4.5,0,7.3-2.1,8.7-5.1l7.6,4.4c-2.7,5.5-8.4,9.1-16.2,9.1   C540.4,61.5,533.2,53.4,533.2,42.8"></path>		<polygon class="st0" points="585.6,32.9 575.4,32.9 575.4,24.8 605.3,24.8 605.3,32.9 595.1,32.9 595.1,60.9 585.6,60.9   "></polygon>		<rect x="615.3" y="24.8" class="st0" width="9.4" height="36.1"></rect>		<path class="st0" d="M633.3,24.8h10.4l4.6,10.5c1.9,4.3,3,9,3,9s1.1-4.8,3-9l4.6-10.5h9.5l-17.1,36.6h-0.8L633.3,24.8z"></path>		<polygon class="st0" points="264.7,14 274.8,14 274.8,69.1 303,69.1 303,78 264.7,78   "></polygon>		<path class="st0" d="M319,16H337c20.9,0,33.7,13.1,33.7,32c0,18.9-12.7,32-33.7,32H319V16z M336.5,71c16.6,0,23.8-9.5,23.8-23.1   c0-13.6-7.3-23.1-23.8-23.1H329V71H336.5z"></path>		<polygon class="st0" points="676.9,24.8 702.5,24.8 702.5,32.9 686.3,32.9 686.3,40.7 699.8,40.7 699.8,48.4 686.3,48.4    686.3,52.8 703.2,52.8 703.2,60.9 676.9,60.9   "></polygon>		<g>			<path class="st0" d="M718.2,27c0,3.2-2.6,5.8-6,5.8c-3.3,0-6-2.6-6-5.8c0-3.2,2.7-5.8,6-5.8C715.6,21.2,718.2,23.8,718.2,27z     M708,27.1c0,2.4,1.8,4.4,4.2,4.4c2.4,0,4.2-1.9,4.2-4.4c0-2.4-1.8-4.4-4.3-4.4C709.8,22.7,708,24.6,708,27.1z M711.5,29.8h-1.7    v-5.4c0.4-0.1,1.2-0.2,2.4-0.2c1.2,0,1.8,0.2,2.2,0.4c0.3,0.2,0.6,0.6,0.6,1.2c0,0.5-0.5,1-1.2,1.2v0.1c0.6,0.2,0.9,0.6,1.1,1.4    c0.2,0.8,0.3,1.1,0.4,1.3h-1.9c-0.2-0.2-0.3-0.7-0.4-1.1c-0.1-0.5-0.4-0.8-0.9-0.8h-0.5V29.8z M711.6,26.7h0.5c0.6,0,1-0.2,1-0.6    c0-0.4-0.4-0.7-0.9-0.7c-0.2,0-0.4,0-0.5,0V26.7z"></path>		</g>	</g></g><g id="MY_AIR_MY_HEALTH"></g><g id="Magnifying_Glass">	<g>		<g>			<path class="st1" d="M173.4,57c0,2.7-2.2,5-5,5c-2.7,0-5-2.2-5-5c0-2.7,2.2-5,5-5C171.2,52,173.4,54.2,173.4,57z"></path>			<path class="st1" d="M195.9,68.6c0,2.7-2.2,5-5,5c-2.7,0-5-2.2-5-5c0-2.7,2.2-5,5-5C193.6,63.7,195.9,65.9,195.9,68.6z"></path>			<g>				<path class="st2" d="M182.9,35.7c0,2.7-2.2,5-5,5c-2.7,0-5-2.2-5-5c0-2.7,2.2-5,5-5C180.6,30.7,182.9,32.9,182.9,35.7z"></path>				<path class="st3" d="M182.9,35.7c0,2.7-2.2,5-5,5c-2.7,0-5-2.2-5-5c0-2.7,2.2-5,5-5C180.6,30.7,182.9,32.9,182.9,35.7z"></path>			</g>			<g>				<path class="st2" d="M203.1,42.2c0,2.7-2.2,5-5,5c-2.7,0-5-2.2-5-5c0-2.7,2.2-5,5-5C200.9,37.2,203.1,39.5,203.1,42.2z"></path>				<path class="st3" d="M203.1,42.2c0,2.7-2.2,5-5,5c-2.7,0-5-2.2-5-5c0-2.7,2.2-5,5-5C200.9,37.2,203.1,39.5,203.1,42.2z"></path>			</g>			<g>				<path class="st2" d="M201.9,17.7c0,1.8-1.5,3.3-3.3,3.3c-1.8,0-3.3-1.5-3.3-3.3c0-1.8,1.5-3.3,3.3-3.3     C200.4,14.4,201.9,15.9,201.9,17.7z"></path>				<path class="st3" d="M201.9,17.7c0,1.8-1.5,3.3-3.3,3.3c-1.8,0-3.3-1.5-3.3-3.3c0-1.8,1.5-3.3,3.3-3.3     C200.4,14.4,201.9,15.9,201.9,17.7z"></path>			</g>			<g>				<path class="st2" d="M218.1,14.3c0,2.7-2.2,4.9-4.9,4.9c-2.7,0-4.9-2.2-4.9-4.9c0-2.7,2.2-4.9,4.9-4.9     C215.9,9.4,218.1,11.6,218.1,14.3z"></path>				<path class="st3" d="M218.1,14.3c0,2.7-2.2,4.9-4.9,4.9c-2.7,0-4.9-2.2-4.9-4.9c0-2.7,2.2-4.9,4.9-4.9     C215.9,9.4,218.1,11.6,218.1,14.3z"></path>			</g>			<g>				<path class="st2" d="M181.1,73.2c0,2.7-2.2,4.9-4.9,4.9s-4.9-2.2-4.9-4.9c0-2.7,2.2-4.9,4.9-4.9S181.1,70.5,181.1,73.2z"></path>				<path class="st3" d="M181.1,73.2c0,2.7-2.2,4.9-4.9,4.9s-4.9-2.2-4.9-4.9c0-2.7,2.2-4.9,4.9-4.9S181.1,70.5,181.1,73.2z"></path>			</g>			<g>				<path class="st2" d="M200.1,84.8c0,2.7-2.2,4.9-4.9,4.9c-2.7,0-4.9-2.2-4.9-4.9c0-2.7,2.2-4.9,4.9-4.9     C197.9,79.8,200.1,82,200.1,84.8z"></path>				<path class="st3" d="M200.1,84.8c0,2.7-2.2,4.9-4.9,4.9c-2.7,0-4.9-2.2-4.9-4.9c0-2.7,2.2-4.9,4.9-4.9     C197.9,79.8,200.1,82,200.1,84.8z"></path>			</g>			<g>				<path class="st2" d="M244.8,44.7c0,2.7-2.2,4.9-4.9,4.9c-2.7,0-4.9-2.2-4.9-4.9c0-2.7,2.2-4.9,4.9-4.9     C242.6,39.8,244.8,42,244.8,44.7z"></path>				<path class="st3" d="M244.8,44.7c0,2.7-2.2,4.9-4.9,4.9c-2.7,0-4.9-2.2-4.9-4.9c0-2.7,2.2-4.9,4.9-4.9     C242.6,39.8,244.8,42,244.8,44.7z"></path>			</g>			<g>				<path class="st2" d="M208.5,24.6c0,1.4-1.1,2.5-2.6,2.5c-1.4,0-2.5-1.1-2.5-2.5c0-1.4,1.1-2.5,2.5-2.5     C207.4,22,208.5,23.2,208.5,24.6z"></path>				<path class="st3" d="M208.5,24.6c0,1.4-1.1,2.5-2.6,2.5c-1.4,0-2.5-1.1-2.5-2.5c0-1.4,1.1-2.5,2.5-2.5     C207.4,22,208.5,23.2,208.5,24.6z"></path>			</g>			<g>				<path class="st2" d="M184,17.1c0,1.1-0.9,2-2,2c-1.1,0-2-0.9-2-2c0-1.1,0.9-2,2-2C183.1,15.1,184,16,184,17.1z"></path>				<path class="st3" d="M184,17.1c0,1.1-0.9,2-2,2c-1.1,0-2-0.9-2-2c0-1.1,0.9-2,2-2C183.1,15.1,184,16,184,17.1z"></path>			</g>			<path class="st4" d="M186.3,63.9c0,2.4-1.9,4.3-4.3,4.3c-2.4,0-4.3-1.9-4.3-4.3c0-2.4,1.9-4.3,4.3-4.3    C184.4,59.5,186.3,61.5,186.3,63.9z"></path>			<path class="st4" d="M171.8,41.4c0,2.2-1.8,4-4,4c-2.2,0-4-1.8-4-4c0-2.2,1.8-4,4-4C170,37.4,171.8,39.2,171.8,41.4z"></path>			<path class="st4" d="M186.1,39.5c0,1.2-0.9,2.1-2.1,2.1c-1.2,0-2.1-0.9-2.1-2.1c0-1.2,0.9-2.1,2.1-2.1    C185.2,37.4,186.1,38.3,186.1,39.5z"></path>			<path class="st4" d="M187.1,22.8c0,1.2-0.9,2.1-2.1,2.1c-1.2,0-2.1-0.9-2.1-2.1c0-1.2,0.9-2.1,2.1-2.1    C186.2,20.7,187.1,21.6,187.1,22.8z"></path>			<path class="st4" d="M202.6,54.5c0,2.4-1.9,4.3-4.3,4.3c-2.4,0-4.3-1.9-4.3-4.3c0-2.4,1.9-4.3,4.3-4.3    C200.7,50.2,202.6,52.1,202.6,54.5z"></path>			<path class="st4" d="M207.6,63.7c0,1.2-1,2.1-2.1,2.1c-1.2,0-2.1-1-2.1-2.1c0-1.2,1-2.1,2.1-2.1    C206.6,61.6,207.6,62.6,207.6,63.7z"></path>			<path class="st4" d="M206.4,71.4c0,2.3-1.9,4.2-4.2,4.2c-2.3,0-4.2-1.9-4.2-4.2c0-2.3,1.9-4.2,4.2-4.2    C204.5,67.2,206.4,69,206.4,71.4z"></path>			<path class="st4" d="M208,87.3c0,1.9-1.5,3.4-3.3,3.4c-1.9,0-3.3-1.5-3.3-3.4c0-1.9,1.5-3.4,3.3-3.4C206.5,84,208,85.5,208,87.3z    "></path>			<path class="st4" d="M214.5,87.6c0,1.1-0.9,2-2,2c-1.1,0-2-0.9-2-2c0-1.1,0.9-2,2-2C213.6,85.6,214.5,86.5,214.5,87.6z"></path>			<path class="st4" d="M210.7,75.5c0,1.1-0.9,2-2,2c-1.1,0-2-0.9-2-2c0-1.1,0.9-2,2-2C209.8,73.5,210.7,74.4,210.7,75.5z"></path>			<path class="st4" d="M221.9,74.6c0,1.1-0.9,2-2,2c-1.1,0-2-0.9-2-2c0-1.1,0.9-2,2-2C221,72.5,221.9,73.5,221.9,74.6z"></path>			<path class="st4" d="M225.4,61.3c0,2.3-1.9,4.2-4.2,4.2c-2.3,0-4.2-1.9-4.2-4.2c0-2.3,1.9-4.2,4.2-4.2    C223.6,57.1,225.4,59,225.4,61.3z"></path>			<path class="st4" d="M235.6,52.8c0,1.2-1,2.2-2.2,2.2c-1.2,0-2.2-1-2.2-2.2c0-1.2,1-2.2,2.2-2.2    C234.7,50.6,235.6,51.6,235.6,52.8z"></path>			<path class="st4" d="M245.1,51.6c0,1.2-1,2.2-2.2,2.2c-1.2,0-2.2-1-2.2-2.2c0-1.2,1-2.2,2.2-2.2    C244.1,49.4,245.1,50.4,245.1,51.6z"></path>			<path class="st4" d="M237.9,71.4c0,1.4-1.2,2.6-2.6,2.6c-1.4,0-2.6-1.2-2.6-2.6c0-1.4,1.2-2.6,2.6-2.6    C236.8,68.8,237.9,70,237.9,71.4z"></path>			<path class="st4" d="M234.8,37.3c0,3.4-2.8,6.2-6.2,6.2c-3.5,0-6.2-2.8-6.2-6.2c0-3.5,2.8-6.3,6.2-6.3    C232,31,234.8,33.8,234.8,37.3z"></path>			<path class="st4" d="M216.6,30.3c0,2.3-1.9,4.2-4.2,4.2c-2.3,0-4.2-1.9-4.2-4.2c0-2.3,1.9-4.2,4.2-4.2    C214.7,26.1,216.6,28,216.6,30.3z"></path>			<path class="st4" d="M196,31.9c0,2.7-2.2,4.9-4.9,4.9c-2.7,0-4.9-2.2-4.9-4.9c0-2.7,2.2-4.9,4.9-4.9C193.8,27,196,29.2,196,31.9z    "></path>			<path class="st4" d="M182,23.2c0,2.3-1.9,4.2-4.2,4.2c-2.3,0-4.2-1.9-4.2-4.2c0-2.3,1.9-4.2,4.2-4.2    C180.1,18.9,182,20.8,182,23.2z"></path>			<path class="st4" d="M236.8,26.3c0,2.3-1.9,4.2-4.2,4.2c-2.3,0-4.2-1.9-4.2-4.2c0-2.3,1.9-4.2,4.2-4.2    C235,22.1,236.8,23.9,236.8,26.3z"></path>			<path class="st4" d="M207.3,11.2c0,1.5-1.2,2.8-2.8,2.8c-1.6,0-2.8-1.3-2.8-2.8c0-1.5,1.2-2.8,2.8-2.8    C206.1,8.4,207.3,9.7,207.3,11.2z"></path>			<g>				<path class="st2" d="M182.6,48c0,3.4-2.7,6.1-6.1,6.1c-3.4,0-6.1-2.7-6.1-6.1c0-3.4,2.7-6.1,6.1-6.1     C179.9,41.9,182.6,44.6,182.6,48z"></path>				<path class="st2" d="M182.6,48c0,3.4-2.7,6.1-6.1,6.1c-3.4,0-6.1-2.7-6.1-6.1c0-3.4,2.7-6.1,6.1-6.1     C179.9,41.9,182.6,44.6,182.6,48z"></path>			</g>			<g>				<path class="st2" d="M207.2,32.6c0,2.6-2.1,4.7-4.7,4.7c-2.6,0-4.7-2.1-4.7-4.7c0-2.6,2.1-4.7,4.7-4.7     C205.1,27.9,207.2,30,207.2,32.6z"></path>				<path class="st2" d="M207.2,32.6c0,2.6-2.1,4.7-4.7,4.7c-2.6,0-4.7-2.1-4.7-4.7c0-2.6,2.1-4.7,4.7-4.7     C205.1,27.9,207.2,30,207.2,32.6z"></path>			</g>			<g>				<path class="st2" d="M178.5,57.5c0,1.1-0.9,2.1-2.1,2.1c-1.1,0-2.1-0.9-2.1-2.1c0-1.2,0.9-2.1,2.1-2.1     C177.5,55.4,178.5,56.3,178.5,57.5z"></path>				<path class="st2" d="M178.5,57.5c0,1.1-0.9,2.1-2.1,2.1c-1.1,0-2.1-0.9-2.1-2.1c0-1.2,0.9-2.1,2.1-2.1     C177.5,55.4,178.5,56.3,178.5,57.5z"></path>			</g>			<g>				<path class="st2" d="M187.2,44.7c0,1.1-0.9,2.1-2.1,2.1c-1.1,0-2.1-0.9-2.1-2.1c0-1.1,0.9-2.1,2.1-2.1     C186.3,42.6,187.2,43.5,187.2,44.7z"></path>				<path class="st2" d="M187.2,44.7c0,1.1-0.9,2.1-2.1,2.1c-1.1,0-2.1-0.9-2.1-2.1c0-1.1,0.9-2.1,2.1-2.1     C186.3,42.6,187.2,43.5,187.2,44.7z"></path>			</g>			<g>				<path class="st2" d="M233.1,75.9c0,2.8-2.2,5-5,5c-2.8,0-5-2.2-5-5c0-2.8,2.2-5,5-5C230.9,70.9,233.1,73.2,233.1,75.9z"></path>				<path class="st2" d="M233.1,75.9c0,2.8-2.2,5-5,5c-2.8,0-5-2.2-5-5c0-2.8,2.2-5,5-5C230.9,70.9,233.1,73.2,233.1,75.9z"></path>			</g>			<g>				<path class="st2" d="M170,33.8c0,1.1-0.9,2.1-2.1,2.1c-1.1,0-2.1-0.9-2.1-2.1c0-1.2,0.9-2.1,2.1-2.1     C169.1,31.8,170,32.7,170,33.8z"></path>				<path class="st2" d="M170,33.8c0,1.1-0.9,2.1-2.1,2.1c-1.1,0-2.1-0.9-2.1-2.1c0-1.2,0.9-2.1,2.1-2.1     C169.1,31.8,170,32.7,170,33.8z"></path>			</g>			<g>				<path class="st2" d="M184.8,29.2c0,1.4-1.1,2.5-2.5,2.5c-1.4,0-2.5-1.1-2.5-2.5c0-1.4,1.1-2.5,2.5-2.5     C183.7,26.7,184.8,27.8,184.8,29.2z"></path>				<path class="st2" d="M184.8,29.2c0,1.4-1.1,2.5-2.5,2.5c-1.4,0-2.5-1.1-2.5-2.5c0-1.4,1.1-2.5,2.5-2.5     C183.7,26.7,184.8,27.8,184.8,29.2z"></path>			</g>			<g>				<path class="st2" d="M201.8,24.7c0,1.2-1,2.2-2.2,2.2c-1.2,0-2.1-1-2.1-2.2c0-1.2,1-2.2,2.1-2.2     C200.8,22.5,201.8,23.5,201.8,24.7z"></path>				<path class="st2" d="M201.8,24.7c0,1.2-1,2.2-2.2,2.2c-1.2,0-2.1-1-2.1-2.2c0-1.2,1-2.2,2.1-2.2     C200.8,22.5,201.8,23.5,201.8,24.7z"></path>			</g>			<g>				<path class="st2" d="M213.6,22.2c0,1.2-1,2.1-2.2,2.1c-1.2,0-2.1-1-2.1-2.1c0-1.2,1-2.2,2.1-2.2C212.7,20.1,213.6,21,213.6,22.2     z"></path>				<path class="st2" d="M213.6,22.2c0,1.2-1,2.1-2.2,2.1c-1.2,0-2.1-1-2.1-2.1c0-1.2,1-2.2,2.1-2.2C212.7,20.1,213.6,21,213.6,22.2     z"></path>			</g>			<g>				<path class="st2" d="M222.8,31.1c0,1.2-1,2.2-2.2,2.2c-1.2,0-2.1-1-2.1-2.2c0-1.2,1-2.2,2.1-2.2C221.9,29,222.8,30,222.8,31.1z"></path>				<path class="st2" d="M222.8,31.1c0,1.2-1,2.2-2.2,2.2c-1.2,0-2.1-1-2.1-2.2c0-1.2,1-2.2,2.1-2.2C221.9,29,222.8,30,222.8,31.1z"></path>			</g>			<g>				<path class="st2" d="M227.5,28c0,1.2-1,2.2-2.2,2.2c-1.2,0-2.1-1-2.1-2.2c0-1.2,1-2.2,2.1-2.2C226.6,25.9,227.5,26.8,227.5,28z"></path>				<path class="st2" d="M227.5,28c0,1.2-1,2.2-2.2,2.2c-1.2,0-2.1-1-2.1-2.2c0-1.2,1-2.2,2.1-2.2C226.6,25.9,227.5,26.8,227.5,28z"></path>			</g>			<g>				<path class="st2" d="M224.5,15.1c0,1.2-1,2.1-2.2,2.1c-1.2,0-2.1-1-2.1-2.1c0-1.2,1-2.2,2.1-2.2C223.5,13,224.5,13.9,224.5,15.1     z"></path>				<path class="st2" d="M224.5,15.1c0,1.2-1,2.1-2.2,2.1c-1.2,0-2.1-1-2.1-2.1c0-1.2,1-2.2,2.1-2.2C223.5,13,224.5,13.9,224.5,15.1     z"></path>			</g>			<g>				<path class="st2" d="M199.6,11.1c0,1.2-1,2.1-2.2,2.1c-1.2,0-2.1-1-2.1-2.1c0-1.2,1-2.2,2.1-2.2C198.7,9,199.6,9.9,199.6,11.1z"></path>				<path class="st2" d="M199.6,11.1c0,1.2-1,2.1-2.2,2.1c-1.2,0-2.1-1-2.1-2.1c0-1.2,1-2.2,2.1-2.2C198.7,9,199.6,9.9,199.6,11.1z"></path>			</g>			<g>				<path class="st2" d="M222.6,41.5c0,1.2-1,2.2-2.2,2.2c-1.2,0-2.1-1-2.1-2.2c0-1.2,1-2.2,2.1-2.2     C221.7,39.3,222.6,40.3,222.6,41.5z"></path>				<path class="st2" d="M222.6,41.5c0,1.2-1,2.2-2.2,2.2c-1.2,0-2.1-1-2.1-2.2c0-1.2,1-2.2,2.1-2.2     C221.7,39.3,222.6,40.3,222.6,41.5z"></path>			</g>			<g>				<path class="st2" d="M218.8,46.4c0,1.2-1,2.1-2.2,2.1c-1.2,0-2.1-1-2.1-2.1c0-1.2,1-2.2,2.1-2.2     C217.9,44.3,218.8,45.2,218.8,46.4z"></path>				<path class="st2" d="M218.8,46.4c0,1.2-1,2.1-2.2,2.1c-1.2,0-2.1-1-2.1-2.1c0-1.2,1-2.2,2.1-2.2     C217.9,44.3,218.8,45.2,218.8,46.4z"></path>			</g>			<g>				<path class="st2" d="M206.8,47.2c0,1-0.8,1.9-1.9,1.9c-1,0-1.9-0.8-1.9-1.9c0-1,0.8-1.9,1.9-1.9C206,45.3,206.8,46.1,206.8,47.2     z"></path>				<path class="st2" d="M206.8,47.2c0,1-0.8,1.9-1.9,1.9c-1,0-1.9-0.8-1.9-1.9c0-1,0.8-1.9,1.9-1.9C206,45.3,206.8,46.1,206.8,47.2     z"></path>			</g>			<g>				<path class="st2" d="M210.8,70.1c0,1-0.8,1.9-1.9,1.9c-1,0-1.9-0.8-1.9-1.9c0-1,0.8-1.9,1.9-1.9C209.9,68.2,210.8,69,210.8,70.1     z"></path>				<path class="st2" d="M210.8,70.1c0,1-0.8,1.9-1.9,1.9c-1,0-1.9-0.8-1.9-1.9c0-1,0.8-1.9,1.9-1.9C209.9,68.2,210.8,69,210.8,70.1     z"></path>			</g>			<g>				<path class="st2" d="M217.5,70.9c0,1-0.9,1.9-1.9,1.9c-1,0-1.9-0.8-1.9-1.9c0-1,0.8-1.9,1.9-1.9C216.6,69,217.5,69.9,217.5,70.9     z"></path>				<path class="st2" d="M217.5,70.9c0,1-0.9,1.9-1.9,1.9c-1,0-1.9-0.8-1.9-1.9c0-1,0.8-1.9,1.9-1.9C216.6,69,217.5,69.9,217.5,70.9     z"></path>			</g>			<g>				<path class="st2" d="M235.5,64.5c0,1-0.8,1.9-1.9,1.9c-1,0-1.9-0.8-1.9-1.9c0-1,0.8-1.9,1.9-1.9     C234.6,62.6,235.5,63.4,235.5,64.5z"></path>				<path class="st2" d="M235.5,64.5c0,1-0.8,1.9-1.9,1.9c-1,0-1.9-0.8-1.9-1.9c0-1,0.8-1.9,1.9-1.9     C234.6,62.6,235.5,63.4,235.5,64.5z"></path>			</g>			<g>				<path class="st2" d="M240.7,66.9c0,1-0.8,1.9-1.9,1.9c-1,0-1.9-0.8-1.9-1.9c0-1,0.8-1.9,1.9-1.9C239.8,65,240.7,65.9,240.7,66.9     z"></path>				<path class="st2" d="M240.7,66.9c0,1-0.8,1.9-1.9,1.9c-1,0-1.9-0.8-1.9-1.9c0-1,0.8-1.9,1.9-1.9C239.8,65,240.7,65.9,240.7,66.9     z"></path>			</g>			<g>				<path class="st2" d="M233.9,46.7c0,1-0.8,1.9-1.9,1.9c-1,0-1.9-0.8-1.9-1.9c0-1,0.9-1.9,1.9-1.9     C233.1,44.8,233.9,45.7,233.9,46.7z"></path>				<path class="st2" d="M233.9,46.7c0,1-0.8,1.9-1.9,1.9c-1,0-1.9-0.8-1.9-1.9c0-1,0.9-1.9,1.9-1.9     C233.1,44.8,233.9,45.7,233.9,46.7z"></path>			</g>			<g>				<path class="st2" d="M239.8,30.9c0,1-0.9,1.9-1.9,1.9c-1,0-1.9-0.8-1.9-1.9c0-1,0.8-1.9,1.9-1.9C238.9,29,239.8,29.9,239.8,30.9     z"></path>				<path class="st2" d="M239.8,30.9c0,1-0.9,1.9-1.9,1.9c-1,0-1.9-0.8-1.9-1.9c0-1,0.8-1.9,1.9-1.9C238.9,29,239.8,29.9,239.8,30.9     z"></path>			</g>			<g>				<path class="st2" d="M197.6,76c0,1-0.8,1.9-1.9,1.9c-1,0-1.9-0.8-1.9-1.9c0-1,0.8-1.9,1.9-1.9C196.7,74.1,197.6,74.9,197.6,76z"></path>				<path class="st2" d="M197.6,76c0,1-0.8,1.9-1.9,1.9c-1,0-1.9-0.8-1.9-1.9c0-1,0.8-1.9,1.9-1.9C196.7,74.1,197.6,74.9,197.6,76z"></path>			</g>			<g>				<path class="st2" d="M192.3,77.6c0,1-0.9,1.9-1.9,1.9c-1,0-1.9-0.8-1.9-1.9c0-1,0.8-1.9,1.9-1.9     C191.5,75.7,192.3,76.5,192.3,77.6z"></path>				<path class="st2" d="M192.3,77.6c0,1-0.9,1.9-1.9,1.9c-1,0-1.9-0.8-1.9-1.9c0-1,0.8-1.9,1.9-1.9     C191.5,75.7,192.3,76.5,192.3,77.6z"></path>			</g>			<g>				<path class="st2" d="M187.4,81.8c0,1.7-1.4,3.1-3.1,3.1c-1.7,0-3.1-1.4-3.1-3.1c0-1.7,1.4-3.1,3.1-3.1     C186,78.7,187.4,80.1,187.4,81.8z"></path>				<path class="st2" d="M187.4,81.8c0,1.7-1.4,3.1-3.1,3.1c-1.7,0-3.1-1.4-3.1-3.1c0-1.7,1.4-3.1,3.1-3.1     C186,78.7,187.4,80.1,187.4,81.8z"></path>			</g>			<g>				<path class="st2" d="M212.9,81.2c0,1.6-1.3,2.8-2.8,2.8c-1.6,0-2.8-1.3-2.8-2.8c0-1.6,1.3-2.8,2.8-2.8     C211.7,78.4,212.9,79.6,212.9,81.2z"></path>				<path class="st2" d="M212.9,81.2c0,1.6-1.3,2.8-2.8,2.8c-1.6,0-2.8-1.3-2.8-2.8c0-1.6,1.3-2.8,2.8-2.8     C211.7,78.4,212.9,79.6,212.9,81.2z"></path>			</g>			<g>				<path class="st2" d="M224.7,69.2c0,1.6-1.3,2.8-2.8,2.8c-1.6,0-2.8-1.3-2.8-2.8c0-1.6,1.3-2.8,2.8-2.8     C223.4,66.4,224.7,67.7,224.7,69.2z"></path>				<path class="st2" d="M224.7,69.2c0,1.6-1.3,2.8-2.8,2.8c-1.6,0-2.8-1.3-2.8-2.8c0-1.6,1.3-2.8,2.8-2.8     C223.4,66.4,224.7,67.7,224.7,69.2z"></path>			</g>			<g>				<path class="st2" d="M232.7,58.9c0,1.6-1.3,2.8-2.8,2.8c-1.6,0-2.8-1.3-2.8-2.8c0-1.6,1.3-2.8,2.8-2.8     C231.4,56.1,232.7,57.4,232.7,58.9z"></path>				<path class="st2" d="M232.7,58.9c0,1.6-1.3,2.8-2.8,2.8c-1.6,0-2.8-1.3-2.8-2.8c0-1.6,1.3-2.8,2.8-2.8     C231.4,56.1,232.7,57.4,232.7,58.9z"></path>			</g>			<g>				<path class="st2" d="M193.1,59c0,1.6-1.3,2.9-2.9,2.9c-1.6,0-2.9-1.3-2.9-2.9c0-1.6,1.3-2.9,2.9-2.9     C191.8,56,193.1,57.3,193.1,59z"></path>				<path class="st2" d="M193.1,59c0,1.6-1.3,2.9-2.9,2.9c-1.6,0-2.9-1.3-2.9-2.9c0-1.6,1.3-2.9,2.9-2.9     C191.8,56,193.1,57.3,193.1,59z"></path>			</g>			<g>				<path class="st2" d="M192,40.1c0,1.1-0.9,2.1-2.1,2.1c-1.1,0-2.1-0.9-2.1-2.1c0-1.1,0.9-2.1,2.1-2.1C191,38,192,38.9,192,40.1z"></path>				<path class="st2" d="M192,40.1c0,1.1-0.9,2.1-2.1,2.1c-1.1,0-2.1-0.9-2.1-2.1c0-1.1,0.9-2.1,2.1-2.1C191,38,192,38.9,192,40.1z"></path>			</g>			<g>				<path class="st2" d="M167,48.8c0,1.2-0.9,2.1-2.1,2.1c-1.1,0-2.1-0.9-2.1-2.1c0-1.1,0.9-2.1,2.1-2.1     C166.1,46.7,167,47.6,167,48.8z"></path>				<path class="st2" d="M167,48.8c0,1.2-0.9,2.1-2.1,2.1c-1.1,0-2.1-0.9-2.1-2.1c0-1.1,0.9-2.1,2.1-2.1     C166.1,46.7,167,47.6,167,48.8z"></path>			</g>			<g>				<path class="st2" d="M171.4,67.7c0,1.1-0.9,2.1-2.1,2.1c-1.1,0-2.1-0.9-2.1-2.1c0-1.1,0.9-2.1,2.1-2.1     C170.4,65.7,171.4,66.6,171.4,67.7z"></path>				<path class="st2" d="M171.4,67.7c0,1.1-0.9,2.1-2.1,2.1c-1.1,0-2.1-0.9-2.1-2.1c0-1.1,0.9-2.1,2.1-2.1     C170.4,65.7,171.4,66.6,171.4,67.7z"></path>			</g>			<g>				<path class="st2" d="M176.5,64c0,1.1-0.9,2.1-2.1,2.1c-1.1,0-2.1-0.9-2.1-2.1c0-1.1,0.9-2.1,2.1-2.1     C175.6,61.9,176.5,62.8,176.5,64z"></path>				<path class="st1" d="M176.5,64c0,1.1-0.9,2.1-2.1,2.1c-1.1,0-2.1-0.9-2.1-2.1c0-1.1,0.9-2.1,2.1-2.1     C175.6,61.9,176.5,62.8,176.5,64z"></path>			</g>			<g>				<path class="st2" d="M201.2,63.6c0,1.5-1.3,2.8-2.8,2.8c-1.5,0-2.8-1.3-2.8-2.8c0-1.6,1.3-2.8,2.8-2.8     C199.9,60.8,201.2,62,201.2,63.6z"></path>				<path class="st1" d="M201.2,63.6c0,1.5-1.3,2.8-2.8,2.8c-1.5,0-2.8-1.3-2.8-2.8c0-1.6,1.3-2.8,2.8-2.8     C199.9,60.8,201.2,62,201.2,63.6z"></path>			</g>			<g>				<path class="st2" d="M205.5,79.7c0,1.6-1.3,2.8-2.8,2.8c-1.6,0-2.8-1.3-2.8-2.8c0-1.6,1.3-2.8,2.8-2.8     C204.2,76.9,205.5,78.2,205.5,79.7z"></path>				<path class="st1" d="M205.5,79.7c0,1.6-1.3,2.8-2.8,2.8c-1.6,0-2.8-1.3-2.8-2.8c0-1.6,1.3-2.8,2.8-2.8     C204.2,76.9,205.5,78.2,205.5,79.7z"></path>			</g>			<g>				<path class="st2" d="M187.7,74.9c0,1.6-1.3,2.8-2.8,2.8c-1.6,0-2.8-1.3-2.8-2.8c0-1.6,1.3-2.8,2.8-2.8     C186.4,72.1,187.7,73.4,187.7,74.9z"></path>				<path class="st1" d="M187.7,74.9c0,1.6-1.3,2.8-2.8,2.8c-1.6,0-2.8-1.3-2.8-2.8c0-1.6,1.3-2.8,2.8-2.8     C186.4,72.1,187.7,73.4,187.7,74.9z"></path>			</g>			<g>				<path class="st2" d="M215.3,65.1c0,1.6-1.3,2.8-2.8,2.8c-1.6,0-2.8-1.3-2.8-2.8c0-1.6,1.3-2.8,2.8-2.8     C214,62.3,215.3,63.6,215.3,65.1z"></path>				<path class="st1" d="M215.3,65.1c0,1.6-1.3,2.8-2.8,2.8c-1.6,0-2.8-1.3-2.8-2.8c0-1.6,1.3-2.8,2.8-2.8     C214,62.3,215.3,63.6,215.3,65.1z"></path>			</g>			<g>				<path class="st2" d="M230.9,65.9c0,1.6-1.3,2.8-2.8,2.8c-1.6,0-2.8-1.3-2.8-2.8c0-1.6,1.3-2.8,2.8-2.8     C229.7,63.1,230.9,64.4,230.9,65.9z"></path>				<path class="st1" d="M230.9,65.9c0,1.6-1.3,2.8-2.8,2.8c-1.6,0-2.8-1.3-2.8-2.8c0-1.6,1.3-2.8,2.8-2.8     C229.7,63.1,230.9,64.4,230.9,65.9z"></path>			</g>			<g>				<path class="st2" d="M220.4,36.1c0,1.6-1.3,2.8-2.8,2.8c-1.6,0-2.8-1.3-2.8-2.8c0-1.6,1.3-2.8,2.8-2.8     C219.1,33.3,220.4,34.6,220.4,36.1z"></path>				<path class="st1" d="M220.4,36.1c0,1.6-1.3,2.8-2.8,2.8c-1.6,0-2.8-1.3-2.8-2.8c0-1.6,1.3-2.8,2.8-2.8     C219.1,33.3,220.4,34.6,220.4,36.1z"></path>			</g>			<g>				<path class="st2" d="M230.3,19.7c0,1.5-1.3,2.8-2.8,2.8c-1.6,0-2.8-1.3-2.8-2.8c0-1.6,1.3-2.8,2.8-2.8     C229,16.8,230.3,18.1,230.3,19.7z"></path>				<path class="st1" d="M230.3,19.7c0,1.5-1.3,2.8-2.8,2.8c-1.6,0-2.8-1.3-2.8-2.8c0-1.6,1.3-2.8,2.8-2.8     C229,16.8,230.3,18.1,230.3,19.7z"></path>			</g>			<g>				<path class="st2" d="M242.6,36.2c0,1.5-1.3,2.8-2.8,2.8c-1.5,0-2.8-1.3-2.8-2.8c0-1.6,1.3-2.8,2.8-2.8     C241.3,33.4,242.6,34.6,242.6,36.2z"></path>				<path class="st1" d="M242.6,36.2c0,1.5-1.3,2.8-2.8,2.8c-1.5,0-2.8-1.3-2.8-2.8c0-1.6,1.3-2.8,2.8-2.8     C241.3,33.4,242.6,34.6,242.6,36.2z"></path>			</g>			<g>				<path class="st2" d="M187.6,53.5c0,1.6-1.3,2.9-2.9,2.9c-1.6,0-2.9-1.3-2.9-2.9c0-1.6,1.3-2.9,2.9-2.9     C186.3,50.6,187.6,51.9,187.6,53.5z"></path>				<path class="st1" d="M187.6,53.5c0,1.6-1.3,2.9-2.9,2.9c-1.6,0-2.9-1.3-2.9-2.9c0-1.6,1.3-2.9,2.9-2.9     C186.3,50.6,187.6,51.9,187.6,53.5z"></path>			</g>			<g>				<path class="st2" d="M193,48.9c0,1.6-1.3,2.9-2.9,2.9c-1.6,0-2.9-1.3-2.9-2.9c0-1.6,1.3-2.9,2.9-2.9C191.7,46,193,47.3,193,48.9     z"></path>				<path class="st1" d="M193,48.9c0,1.6-1.3,2.9-2.9,2.9c-1.6,0-2.9-1.3-2.9-2.9c0-1.6,1.3-2.9,2.9-2.9C191.7,46,193,47.3,193,48.9     z"></path>			</g>			<g>				<path class="st2" d="M174.4,28.7c0,1.5-1.2,2.7-2.7,2.7c-1.5,0-2.7-1.2-2.7-2.7c0-1.5,1.2-2.7,2.7-2.7     C173.2,26,174.4,27.2,174.4,28.7z"></path>				<path class="st1" d="M174.4,28.7c0,1.5-1.2,2.7-2.7,2.7c-1.5,0-2.7-1.2-2.7-2.7c0-1.5,1.2-2.7,2.7-2.7     C173.2,26,174.4,27.2,174.4,28.7z"></path>			</g>			<g>				<path class="st2" d="M196.5,23.7c0,1.5-1.3,2.8-2.8,2.8c-1.5,0-2.8-1.3-2.8-2.8c0-1.5,1.3-2.8,2.8-2.8     C195.3,21,196.5,22.2,196.5,23.7z"></path>				<path class="st1" d="M196.5,23.7c0,1.5-1.3,2.8-2.8,2.8c-1.5,0-2.8-1.3-2.8-2.8c0-1.5,1.3-2.8,2.8-2.8     C195.3,21,196.5,22.2,196.5,23.7z"></path>			</g>			<g>				<path class="st2" d="M208.6,18.3c0,1.5-1.3,2.8-2.8,2.8c-1.5,0-2.8-1.3-2.8-2.8c0-1.5,1.3-2.8,2.8-2.8     C207.4,15.5,208.6,16.8,208.6,18.3z"></path>				<path class="st1" d="M208.6,18.3c0,1.5-1.3,2.8-2.8,2.8c-1.5,0-2.8-1.3-2.8-2.8c0-1.5,1.3-2.8,2.8-2.8     C207.4,15.5,208.6,16.8,208.6,18.3z"></path>			</g>			<g>				<path class="st2" d="M194.7,15.8c0,2.7-2.2,4.9-4.9,4.9c-2.7,0-4.9-2.2-4.9-4.9c0-2.7,2.2-4.9,4.9-4.9     C192.5,10.9,194.7,13.1,194.7,15.8z"></path>				<path class="st1" d="M194.7,15.8c0,2.7-2.2,4.9-4.9,4.9c-2.7,0-4.9-2.2-4.9-4.9c0-2.7,2.2-4.9,4.9-4.9     C192.5,10.9,194.7,13.1,194.7,15.8z"></path>			</g>			<g>				<path class="st2" d="M214.8,41c0,2.7-2.2,4.9-4.9,4.9c-2.7,0-4.9-2.2-4.9-4.9c0-2.7,2.2-4.9,4.9-4.9     C212.6,36.1,214.8,38.3,214.8,41z"></path>				<path class="st1" d="M214.8,41c0,2.7-2.2,4.9-4.9,4.9c-2.7,0-4.9-2.2-4.9-4.9c0-2.7,2.2-4.9,4.9-4.9     C212.6,36.1,214.8,38.3,214.8,41z"></path>			</g>			<g>				<path class="st2" d="M224.5,23.2c0,2.7-2.2,4.9-4.9,4.9c-2.7,0-4.9-2.2-4.9-4.9c0-2.7,2.2-4.9,4.9-4.9     C222.3,18.3,224.5,20.5,224.5,23.2z"></path>				<path class="st1" d="M224.5,23.2c0,2.7-2.2,4.9-4.9,4.9c-2.7,0-4.9-2.2-4.9-4.9c0-2.7,2.2-4.9,4.9-4.9     C222.3,18.3,224.5,20.5,224.5,23.2z"></path>			</g>			<g>				<path class="st2" d="M229.7,50.6c0,2.7-2.2,4.9-4.9,4.9c-2.7,0-4.9-2.2-4.9-4.9c0-2.7,2.2-4.9,4.9-4.9     C227.5,45.7,229.7,47.9,229.7,50.6z"></path>				<path class="st1" d="M229.7,50.6c0,2.7-2.2,4.9-4.9,4.9c-2.7,0-4.9-2.2-4.9-4.9c0-2.7,2.2-4.9,4.9-4.9     C227.5,45.7,229.7,47.9,229.7,50.6z"></path>			</g>			<g>				<path class="st2" d="M223.9,82.3c0,2.7-2.2,4.9-4.9,4.9c-2.7,0-4.9-2.2-4.9-4.9c0-2.7,2.2-4.9,4.9-4.9     C221.8,77.5,223.9,79.6,223.9,82.3z"></path>				<path class="st1" d="M223.9,82.3c0,2.7-2.2,4.9-4.9,4.9c-2.7,0-4.9-2.2-4.9-4.9c0-2.7,2.2-4.9,4.9-4.9     C221.8,77.5,223.9,79.6,223.9,82.3z"></path>			</g>			<g>				<path class="st2" d="M243.5,58.7c0,2.7-2.2,4.9-4.9,4.9c-2.7,0-4.9-2.2-4.9-4.9c0-2.7,2.2-4.9,4.9-4.9     C241.3,53.8,243.5,56,243.5,58.7z"></path>				<path class="st1" d="M243.5,58.7c0,2.7-2.2,4.9-4.9,4.9c-2.7,0-4.9-2.2-4.9-4.9c0-2.7,2.2-4.9,4.9-4.9     C241.3,53.8,243.5,56,243.5,58.7z"></path>			</g>			<path class="st2" d="M216.3,55.2c0,3.1-2.5,5.6-5.6,5.6c-3.1,0-5.6-2.5-5.6-5.6c0-3.1,2.5-5.6,5.6-5.6    C213.8,49.6,216.3,52.1,216.3,55.2z"></path>		</g>		<linearGradient id="SVGID_1_" gradientUnits="userSpaceOnUse" x1="241.7389" y1="96.3551" x2="251.2269" y2="87.2393">			<stop offset="0" style="stop-color:#C5C7C9"></stop>			<stop offset="3.190495e-02" style="stop-color:#CDCFD0"></stop>			<stop offset="0.1952" style="stop-color:#F1F2F2"></stop>			<stop offset="0.2822" style="stop-color:#FFFFFF"></stop>			<stop offset="0.3367" style="stop-color:#F8F8F9"></stop>			<stop offset="0.4356" style="stop-color:#F1F1F2"></stop>			<stop offset="0.4529" style="stop-color:#E9EAEB;stop-opacity:0.9594"></stop>			<stop offset="0.4909" style="stop-color:#DFDFE0;stop-opacity:0.8703"></stop>			<stop offset="0.5337" style="stop-color:#DBDCDD;stop-opacity:0.77"></stop>			<stop offset="0.5903" style="stop-color:#E8E8E9;stop-opacity:0.8816"></stop>			<stop offset="0.6503" style="stop-color:#F1F1F2"></stop>			<stop offset="0.7607" style="stop-color:#FFFFFF"></stop>			<stop offset="1" style="stop-color:#929497"></stop>		</linearGradient>		<polygon class="st5" points="257.8,94.4 249,103.2 235.1,89.3 243.9,80.5   "></polygon>					<linearGradient id="SVGID_00000137097016282146735990000017420197794705112726_" gradientUnits="userSpaceOnUse" x1="242.0496" y1="96.2303" x2="250.832" y2="87.4479">			<stop offset="4.907980e-02" style="stop-color:#929497"></stop>			<stop offset="0.1329" style="stop-color:#989A9D;stop-opacity:0.7373"></stop>			<stop offset="0.3681" style="stop-color:#A6A8AB;stop-opacity:0"></stop>		</linearGradient>		<polygon style="fill:url(#SVGID_00000137097016282146735990000017420197794705112726_);" points="257.8,94.4 249,103.2    235.1,89.3 243.9,80.5   "></polygon>					<linearGradient id="SVGID_00000095320863812096924650000015496533054918010303_" gradientUnits="userSpaceOnUse" x1="272.8547" y1="139.3869" x2="295.3441" y2="116.0985">			<stop offset="0.4294" style="stop-color:#231F20"></stop>			<stop offset="0.4802" style="stop-color:#2D2A2C"></stop>			<stop offset="0.6162" style="stop-color:#454446"></stop>			<stop offset="0.7384" style="stop-color:#535455"></stop>			<stop offset="0.8344" style="stop-color:#58595B"></stop>		</linearGradient>		<path style="fill:url(#SVGID_00000095320863812096924650000015496533054918010303_);" d="M255.3,92.2c0,0,1.9-2.4,5.6,1.1   c3.1,2.9,60.5,53.2,60.5,53.2s4.4,4.1,0.6,7.4l-11.6,11.8c-3.4,3.6-6.5,0.8-6.5,0.8l-57.6-61.2c0,0-1.6-2.1-0.3-3.5   C247.3,100.4,255.3,92.2,255.3,92.2z"></path>					<linearGradient id="SVGID_00000080886609954018944300000016346258604184405177_" gradientUnits="userSpaceOnUse" x1="465.7756" y1="-108.6866" x2="521.3224" y2="-52.368" gradientTransform="matrix(-6.900000e-03 1 1 6.900000e-03 358.8144 -360.2973)">			<stop offset="0" style="stop-color:#404041"></stop>			<stop offset="2.395719e-02" style="stop-color:#454546"></stop>			<stop offset="5.199453e-02" style="stop-color:#525354"></stop>			<stop offset="8.207585e-02" style="stop-color:#686A6C"></stop>			<stop offset="0.1136" style="stop-color:#878A8C"></stop>			<stop offset="0.1459" style="stop-color:#AEB3B6"></stop>			<stop offset="0.1534" style="stop-color:#B8BDC1"></stop>			<stop offset="0.4279" style="stop-color:#ADB0B3"></stop>			<stop offset="0.6933" style="stop-color:#A6A8AB"></stop>			<stop offset="0.7532" style="stop-color:#919295;stop-opacity:0.8044"></stop>			<stop offset="0.8772" style="stop-color:#5D5B5D;stop-opacity:0.4003"></stop>			<stop offset="1" style="stop-color:#231F20;stop-opacity:0"></stop>		</linearGradient>		<path style="opacity:0.65;fill:url(#SVGID_00000080886609954018944300000016346258604184405177_);" d="M247.5,104.6   c13.6,15,52.4,55.6,54.1,57.3l2.5-2.6c-1.3-1.2-35.3-32.5-56.3-55c0,0-0.2-0.3-0.4-0.1C247.2,104.4,247.5,104.6,247.5,104.6z"></path>		<path class="st9" d="M236.6,91.9c-1.1,0.8-2.5,0.2-3.2-0.4c-0.4-0.4-1.3-1.2-1.3-1.2l12.4-12.3c0,0,1,1,1.4,1.4   c0.6,0.6,1.2,2.1,0.4,2.9c0,0-2.1,2.7-4.9,5.4C238.6,90.4,236.6,91.9,236.6,91.9z"></path>		<g>			<path class="st10" d="M236.6,91.9c-1.1,0.8-2.5,0.2-3.2-0.4c-0.4-0.4-1.3-1.2-1.3-1.2l6.2-6.2l6.2-6.2c0,0,1,1,1.4,1.4    c0.6,0.6,1.2,2.1,0.4,2.9c0,0-2.1,2.7-4.9,5.4C238.6,90.4,236.6,91.9,236.6,91.9z"></path>			<path class="st11" d="M245.9,79.3c0.6,0.6,1.2,2.1,0.4,2.9c0,0-0.2,0.3-0.6,0.8c-0.8,1-2.4,2.8-4.3,4.7c-0.2,0.2-0.5,0.5-0.7,0.7    c-2.4,2.2-4.1,3.5-4.1,3.5c-0.1,0-0.1,0.1-0.1,0.1c-1.1,0.6-2.4,0.1-3-0.5c-0.4-0.4-1.2-1.2-1.2-1.2c0,0,0.3-0.3,0.3-0.3l5.9-5.9    l5.8-5.8c0,0,0.3-0.3,0.3-0.3C244.6,78,245.5,78.9,245.9,79.3z"></path>			<path class="st12" d="M245.9,79.3c0.6,0.6,1.2,2.1,0.4,2.9c0,0-0.2,0.3-0.6,0.8c-0.8,1-2.3,2.8-4.2,4.6c-0.2,0.2-0.5,0.5-0.7,0.7    c-2.4,2.2-4,3.4-4.1,3.5c-0.1,0-0.1,0.1-0.1,0.1c-1.1,0.6-2.4,0.1-3-0.5c-0.4-0.4-1.2-1.2-1.2-1.2c0,0,0.2-0.3,0.2-0.3l5.9-5.9    l5.8-5.8c0,0,0.3-0.3,0.3-0.3C244.6,78,245.5,78.9,245.9,79.3z"></path>			<path class="st13" d="M245.9,79.3c0.6,0.6,1.2,2.1,0.4,2.9c0,0-0.2,0.3-0.6,0.8c-0.8,1-2.3,2.8-4.2,4.6c-0.2,0.2-0.5,0.5-0.7,0.7    c-2.4,2.2-4,3.4-4,3.4c-0.1,0-0.1,0.1-0.1,0.1c-1.1,0.6-2.4,0.1-3-0.5c-0.4-0.4-1.2-1.2-1.2-1.2c0,0,0.2-0.3,0.2-0.3l5.8-5.8    l5.7-5.7c0,0,0.3-0.3,0.3-0.3C244.5,78,245.5,78.9,245.9,79.3z"></path>			<path class="st14" d="M245.9,79.3c0.6,0.6,1.2,2.1,0.4,2.9c0,0-0.2,0.3-0.6,0.8c-0.8,1-2.3,2.8-4.2,4.6c-0.2,0.2-0.5,0.5-0.7,0.7    c-2.3,2.2-4,3.4-4,3.4c-0.1,0-0.1,0.1-0.1,0.1c-1,0.6-2.4,0.1-2.9-0.5c-0.4-0.4-1.2-1.2-1.2-1.2c0,0,0.2-0.3,0.2-0.3l5.8-5.8    l5.7-5.7c0,0,0.3-0.3,0.3-0.3C244.5,78,245.5,79,245.9,79.3z"></path>			<path class="st15" d="M245.9,79.4c0.6,0.6,1.2,2.1,0.4,2.9c0,0-0.2,0.3-0.6,0.7c-0.8,1-2.3,2.8-4.2,4.6c-0.2,0.2-0.5,0.5-0.7,0.7    c-2.3,2.2-4,3.4-4,3.4c-0.1,0-0.1,0.1-0.1,0.1c-1,0.6-2.3,0.1-2.9-0.5c-0.4-0.4-1.2-1.2-1.2-1.2c0,0,0.2-0.3,0.2-0.3l5.8-5.8    l5.7-5.7c0,0,0.3-0.3,0.3-0.3C244.5,78,245.5,79,245.9,79.4z"></path>			<path class="st16" d="M245.9,79.4c0.6,0.6,1.2,2.1,0.4,2.8c0,0-0.2,0.3-0.6,0.7c-0.8,0.9-2.3,2.7-4.1,4.6    c-0.2,0.2-0.5,0.5-0.7,0.7c-2.3,2.2-3.9,3.4-4,3.4c-0.1,0-0.1,0.1-0.1,0.1c-1,0.6-2.3,0.1-2.9-0.5c-0.4-0.4-1.2-1.2-1.2-1.2    c0,0,0.2-0.3,0.2-0.3l5.7-5.7l5.7-5.6c0,0,0.3-0.3,0.3-0.3C244.5,78.1,245.5,79,245.9,79.4z"></path>			<path class="st17" d="M245.8,79.4c0.6,0.6,1.2,2.1,0.4,2.8c0,0-0.2,0.3-0.6,0.7c-0.8,0.9-2.2,2.7-4.1,4.5    c-0.2,0.2-0.5,0.5-0.7,0.7c-2.3,2.2-3.9,3.3-4,3.4c-0.1,0-0.1,0.1-0.1,0.1c-1,0.6-2.3,0.1-2.9-0.5c-0.4-0.4-1.2-1.2-1.2-1.2    c0,0,0.2-0.2,0.2-0.2l5.7-5.7l5.6-5.6c0,0,0.3-0.3,0.3-0.3C244.5,78.1,245.5,79,245.8,79.4z"></path>			<path class="st18" d="M245.8,79.4c0.6,0.6,1.2,2,0.4,2.8c0,0-0.2,0.3-0.6,0.7c-0.7,0.9-2.2,2.7-4.1,4.5c-0.2,0.2-0.5,0.5-0.7,0.7    c-2.3,2.1-3.9,3.3-3.9,3.3c-0.1,0-0.1,0.1-0.1,0.1c-1,0.6-2.3,0.1-2.9-0.5c-0.4-0.4-1.2-1.2-1.2-1.2c0,0,0.2-0.2,0.2-0.2l5.7-5.7    l5.6-5.6c0,0,0.3-0.3,0.3-0.3C244.5,78.1,245.4,79,245.8,79.4z"></path>			<path class="st19" d="M245.8,79.4c0.6,0.6,1.2,2,0.4,2.8c0,0-0.2,0.3-0.6,0.7c-0.7,0.9-2.2,2.7-4.1,4.5c-0.2,0.2-0.5,0.5-0.7,0.7    c-2.3,2.1-3.9,3.3-3.9,3.3c-0.1,0-0.1,0.1-0.1,0.1c-1,0.6-2.3,0.1-2.9-0.5c-0.4-0.4-1.2-1.2-1.2-1.2c0,0,0.2-0.2,0.2-0.2l5.7-5.6    l5.6-5.6c0,0,0.3-0.3,0.3-0.3C244.5,78.1,245.4,79,245.8,79.4z"></path>			<path class="st20" d="M245.8,79.4c0.6,0.6,1.1,2,0.4,2.8c0,0-0.2,0.3-0.6,0.7c-0.7,0.9-2.2,2.7-4,4.5c-0.2,0.2-0.5,0.5-0.7,0.7    c-2.3,2.1-3.9,3.3-3.9,3.3c-0.1,0-0.1,0.1-0.1,0.1c-1,0.6-2.3,0.1-2.8-0.5c-0.4-0.4-1.2-1.2-1.2-1.2c0,0,0.2-0.2,0.2-0.2l5.6-5.6    l5.5-5.5c0,0,0.3-0.3,0.3-0.3C244.5,78.1,245.4,79,245.8,79.4z"></path>			<path class="st21" d="M245.8,79.4c0.6,0.6,1.1,2,0.4,2.8c0,0-0.2,0.3-0.6,0.7c-0.7,0.9-2.1,2.6-4,4.4c-0.2,0.2-0.5,0.4-0.7,0.7    c-2.2,2.1-3.8,3.2-3.9,3.3c-0.1,0-0.1,0.1-0.1,0.1c-1,0.6-2.3,0.1-2.8-0.5c-0.4-0.4-1.2-1.1-1.2-1.2c0,0,0.2-0.2,0.2-0.2l5.6-5.6    l5.5-5.5c0,0,0.3-0.3,0.3-0.3C244.5,78.2,245.4,79,245.8,79.4z"></path>			<path class="st22" d="M245.8,79.4c0.6,0.6,1.1,2,0.4,2.8c0,0-0.2,0.3-0.6,0.7c-0.7,0.9-2.1,2.6-4,4.4c-0.2,0.2-0.5,0.4-0.7,0.7    c-2.2,2.1-3.8,3.2-3.9,3.3c-0.1,0-0.1,0.1-0.1,0.1c-1,0.6-2.3,0.1-2.8-0.5c-0.4-0.4-1.2-1.1-1.2-1.2c0,0,0.2-0.2,0.2-0.2l5.6-5.6    l5.5-5.5c0,0,0.3-0.3,0.3-0.3C244.5,78.2,245.4,79.1,245.8,79.4z"></path>			<path class="st23" d="M245.8,79.4c0.6,0.6,1.1,2,0.4,2.7c0,0-0.2,0.3-0.6,0.7c-0.7,0.9-2.1,2.6-4,4.4c-0.2,0.2-0.5,0.4-0.7,0.7    c-2.2,2.1-3.8,3.2-3.9,3.2c-0.1,0-0.1,0.1-0.1,0.1c-1,0.6-2.2,0.1-2.8-0.5c-0.4-0.4-1.2-1.1-1.2-1.2c0,0,0.2-0.2,0.2-0.2l5.5-5.5    l5.4-5.5c0,0,0.3-0.3,0.3-0.3C244.5,78.2,245.4,79.1,245.8,79.4z"></path>			<path class="st24" d="M245.8,79.5c0.6,0.6,1.1,2,0.4,2.7c0,0-0.2,0.3-0.6,0.7c-0.7,0.9-2.1,2.6-3.9,4.4c-0.2,0.2-0.5,0.4-0.7,0.6    c-2.2,2.1-3.8,3.2-3.8,3.2c-0.1,0-0.1,0.1-0.1,0.1c-1,0.6-2.2,0.1-2.8-0.5c-0.4-0.4-1.1-1.1-1.2-1.1c0,0,0.2-0.2,0.2-0.2l5.5-5.5    l5.4-5.4c0,0,0.3-0.3,0.3-0.3C244.5,78.2,245.4,79.1,245.8,79.5z"></path>			<path class="st25" d="M245.7,79.5c0.6,0.6,1.1,2,0.4,2.7c0,0-0.2,0.3-0.5,0.7c-0.7,0.8-2.1,2.6-3.9,4.4c-0.2,0.2-0.5,0.4-0.7,0.6    c-2.2,2-3.7,3.2-3.8,3.2c-0.1,0-0.1,0.1-0.1,0.1c-1,0.6-2.2,0.1-2.8-0.5c-0.4-0.4-1.1-1.1-1.2-1.1c0,0,0.2-0.2,0.2-0.2l5.5-5.5    l5.4-5.4c0,0,0.3-0.3,0.3-0.3C244.5,78.2,245.4,79.1,245.7,79.5z"></path>			<path class="st26" d="M245.7,79.5c0.6,0.6,1.1,2,0.4,2.7c0,0-0.2,0.3-0.5,0.7c-0.7,0.8-2,2.6-3.9,4.3c-0.2,0.2-0.5,0.4-0.7,0.6    c-2.2,2-3.7,3.1-3.8,3.2c0,0-0.1,0.1-0.1,0.1c-1,0.6-2.2,0.1-2.8-0.5c-0.4-0.4-1.1-1.1-1.2-1.1c0,0,0.2-0.2,0.2-0.2l5.4-5.4    l5.4-5.4c0,0,0.3-0.3,0.3-0.3C244.5,78.2,245.4,79.1,245.7,79.5z"></path>			<path class="st27" d="M245.7,79.5c0.6,0.6,1.1,1.9,0.4,2.7c0,0-0.2,0.3-0.5,0.7c-0.7,0.8-2,2.5-3.9,4.3c-0.2,0.2-0.4,0.4-0.7,0.6    c-2.2,2-3.7,3.1-3.8,3.2c0,0-0.1,0.1-0.1,0.1c-1,0.6-2.2,0.1-2.7-0.5c-0.4-0.4-1.1-1.1-1.2-1.1c0,0,0.2-0.2,0.2-0.2l5.4-5.4    l5.3-5.3c0,0,0.3-0.3,0.3-0.3C244.5,78.3,245.4,79.1,245.7,79.5z"></path>			<path class="st28" d="M245.7,79.5c0.6,0.6,1.1,1.9,0.4,2.7c0,0-0.2,0.3-0.5,0.7c-0.7,0.8-2,2.5-3.8,4.3c-0.2,0.2-0.4,0.4-0.7,0.6    c-2.1,2-3.7,3.1-3.8,3.1c0,0-0.1,0.1-0.1,0.1c-1,0.6-2.2,0.1-2.7-0.5c-0.4-0.4-1.1-1.1-1.1-1.1c0,0,0.2-0.2,0.2-0.2l5.4-5.4    l5.3-5.3c0,0,0.3-0.3,0.3-0.3C244.5,78.3,245.4,79.1,245.7,79.5z"></path>			<path class="st29" d="M245.7,79.5c0.6,0.6,1.1,1.9,0.4,2.7c0,0-0.2,0.3-0.5,0.7c-0.7,0.8-2,2.5-3.8,4.3c-0.2,0.2-0.4,0.4-0.7,0.6    c-2.1,2-3.6,3.1-3.7,3.1c0,0-0.1,0.1-0.1,0.1c-1,0.5-2.2,0.1-2.7-0.5c-0.4-0.4-1.1-1.1-1.1-1.1c0,0,0.2-0.2,0.2-0.2l5.3-5.4    l5.3-5.3c0,0,0.3-0.3,0.3-0.2C244.5,78.3,245.3,79.2,245.7,79.5z"></path>			<path class="st30" d="M245.7,79.5c0.6,0.6,1.1,1.9,0.4,2.6c0,0-0.2,0.3-0.5,0.7c-0.6,0.8-2,2.5-3.8,4.3c-0.2,0.2-0.4,0.4-0.7,0.6    c-2.1,2-3.6,3-3.7,3.1c0,0-0.1,0.1-0.1,0.1c-1,0.5-2.1,0.1-2.7-0.5c-0.4-0.4-1.1-1.1-1.1-1.1c0,0,0.2-0.2,0.2-0.2l5.3-5.3    l5.2-5.3c0,0,0.3-0.3,0.3-0.2C244.5,78.3,245.3,79.2,245.7,79.5z"></path>			<path class="st31" d="M245.7,79.5c0.5,0.5,1.1,1.9,0.4,2.6c0,0-0.2,0.3-0.5,0.7c-0.6,0.8-1.9,2.5-3.8,4.2    c-0.2,0.2-0.4,0.4-0.7,0.6c-2.1,2-3.6,3-3.7,3.1c0,0-0.1,0.1-0.1,0.1c-1,0.5-2.1,0.1-2.7-0.5c-0.4-0.4-1.1-1.1-1.1-1.1    c0,0,0.2-0.2,0.2-0.2l5.3-5.3l5.2-5.2c0,0,0.3-0.3,0.3-0.2C244.5,78.3,245.3,79.2,245.7,79.5z"></path>			<path class="st32" d="M245.7,79.5c0.5,0.5,1.1,1.9,0.4,2.6c0,0-0.2,0.3-0.5,0.7c-0.6,0.8-1.9,2.4-3.7,4.2    c-0.2,0.2-0.4,0.4-0.6,0.6c-2.1,1.9-3.6,3-3.7,3.1c0,0-0.1,0.1-0.1,0.1c-1,0.5-2.1,0.1-2.7-0.5c-0.3-0.4-1.1-1.1-1.1-1.1    c0,0,0.2-0.2,0.2-0.2l5.2-5.3l5.2-5.2c0,0,0.3-0.3,0.3-0.2C244.5,78.4,245.3,79.2,245.7,79.5z"></path>			<path class="st33" d="M245.7,79.6c0.5,0.5,1.1,1.9,0.4,2.6c0,0-0.2,0.3-0.5,0.7c-0.6,0.8-1.9,2.4-3.7,4.2    c-0.2,0.2-0.4,0.4-0.6,0.6c-2.1,1.9-3.5,3-3.7,3c0,0-0.1,0.1-0.1,0.1c-1,0.5-2.1,0.1-2.6-0.5c-0.3-0.4-1.1-1.1-1.1-1.1    c0,0,0.2-0.2,0.2-0.2l5.2-5.2l5.1-5.2c0,0,0.3-0.3,0.3-0.2C244.5,78.4,245.3,79.2,245.7,79.6z"></path>			<path class="st34" d="M245.6,79.6c0.5,0.5,1.1,1.9,0.4,2.6c0,0-0.2,0.3-0.5,0.7c-0.6,0.7-1.9,2.4-3.7,4.2    c-0.2,0.2-0.4,0.4-0.6,0.6c-2,1.9-3.5,2.9-3.7,3c0,0-0.1,0.1-0.1,0.1c-1,0.5-2.1,0.1-2.6-0.5c-0.3-0.3-1.1-1-1.1-1.1    c0,0,0.2-0.2,0.2-0.2l5.2-5.2l5.1-5.1c0,0,0.3-0.2,0.3-0.2C244.5,78.4,245.3,79.2,245.6,79.6z"></path>			<path class="st35" d="M245.6,79.6c0.5,0.5,1.1,1.8,0.4,2.6c0,0-0.2,0.3-0.5,0.7c-0.6,0.7-1.8,2.4-3.7,4.2    c-0.2,0.2-0.4,0.4-0.6,0.6c-2,1.9-3.5,2.9-3.6,3c0,0-0.1,0.1-0.1,0.1c-0.9,0.5-2.1,0.1-2.6-0.5c-0.3-0.3-1.1-1-1.1-1.1    c0,0,0.2-0.2,0.2-0.2l5.2-5.2l5.1-5.1c0,0,0.3-0.2,0.3-0.2C244.5,78.4,245.3,79.2,245.6,79.6z"></path>			<path class="st36" d="M245.6,79.6c0.5,0.5,1,1.8,0.4,2.6c0,0-0.2,0.3-0.5,0.7c-0.6,0.7-1.8,2.4-3.6,4.1c-0.2,0.2-0.4,0.4-0.6,0.6    c-2,1.9-3.5,2.9-3.6,3c0,0-0.1,0.1-0.1,0.1c-0.9,0.5-2.1,0.1-2.6-0.5c-0.3-0.3-1-1-1.1-1.1c0,0,0.1-0.2,0.1-0.2l5.1-5.2l5.1-5.1    c0,0,0.3-0.2,0.3-0.2C244.5,78.4,245.3,79.2,245.6,79.6z"></path>			<path class="st37" d="M245.6,79.6c0.5,0.5,1,1.8,0.4,2.5c0,0-0.2,0.3-0.5,0.7c-0.6,0.7-1.8,2.3-3.6,4.1c-0.2,0.2-0.4,0.4-0.6,0.6    c-2,1.9-3.4,2.9-3.6,3c0,0-0.1,0.1-0.1,0.1c-0.9,0.5-2,0.1-2.6-0.5c-0.3-0.3-1-1-1.1-1.1c0,0,0.1-0.2,0.1-0.2l5.1-5.1l5-5.1    c0,0,0.3-0.2,0.3-0.2C244.5,78.5,245.3,79.3,245.6,79.6z"></path>			<path class="st38" d="M245.6,79.6c0.5,0.5,1,1.8,0.4,2.5c0,0-0.2,0.3-0.5,0.7c-0.6,0.7-1.8,2.3-3.6,4.1c-0.2,0.2-0.4,0.4-0.6,0.6    c-2,1.9-3.4,2.9-3.6,2.9c0,0-0.1,0.1-0.1,0.1c-0.9,0.5-2,0.1-2.6-0.5c-0.3-0.3-1-1-1.1-1.1c0,0,0.1-0.2,0.1-0.2l5.1-5.1l5-5    c0,0,0.3-0.2,0.3-0.2C244.5,78.5,245.3,79.3,245.6,79.6z"></path>			<path class="st39" d="M245.6,79.6c0.5,0.5,1,1.8,0.4,2.5c0,0.1-0.2,0.3-0.5,0.7c-0.6,0.7-1.8,2.3-3.6,4.1    c-0.2,0.2-0.4,0.4-0.6,0.6c-2,1.8-3.4,2.8-3.6,2.9c0,0-0.1,0.1-0.1,0.1c-0.9,0.5-2,0.1-2.6-0.5c-0.3-0.3-1-1-1.1-1.1    c0,0,0.1-0.2,0.1-0.2l5-5.1l5-5c0,0,0.3-0.2,0.3-0.2C244.5,78.5,245.2,79.3,245.6,79.6z"></path>			<path class="st40" d="M245.6,79.6c0.5,0.5,1,1.8,0.4,2.5c0,0.1-0.2,0.3-0.5,0.7c-0.6,0.7-1.7,2.3-3.5,4c-0.2,0.2-0.4,0.4-0.6,0.6    c-2,1.8-3.4,2.8-3.5,2.9c0,0-0.1,0.1-0.1,0.1c-0.9,0.5-2,0.1-2.5-0.5c-0.3-0.3-1-1-1.1-1.1c0,0,0.1-0.2,0.1-0.2l5-5l4.9-5    c0,0,0.3-0.2,0.3-0.2C244.5,78.5,245.2,79.3,245.6,79.6z"></path>			<path class="st41" d="M245.6,79.6c0.5,0.5,1,1.8,0.4,2.5c0,0.1-0.2,0.3-0.5,0.7c-0.6,0.7-1.7,2.3-3.5,4c-0.2,0.2-0.4,0.4-0.6,0.6    c-1.9,1.8-3.3,2.8-3.5,2.9c0,0-0.1,0.1-0.1,0.1c-0.9,0.5-2,0.1-2.5-0.5c-0.3-0.3-1-1-1.1-1.1c0,0,0.1-0.2,0.1-0.2l5-5l4.9-5    c0,0,0.3-0.2,0.3-0.2C244.5,78.5,245.2,79.3,245.6,79.6z"></path>			<path class="st42" d="M245.5,79.7c0.5,0.5,1,1.8,0.4,2.5c0,0.1-0.2,0.3-0.5,0.7c-0.5,0.7-1.7,2.3-3.5,4c-0.2,0.2-0.4,0.4-0.6,0.6    c-1.9,1.8-3.3,2.8-3.5,2.9c0,0-0.1,0.1-0.1,0.1c-0.9,0.5-2,0.1-2.5-0.5c-0.3-0.3-1-1-1.1-1c0,0,0.1-0.2,0.1-0.2l4.9-5l4.9-4.9    c0,0,0.3-0.2,0.3-0.2C244.5,78.6,245.2,79.3,245.5,79.7z"></path>			<path class="st43" d="M245.5,79.7c0.5,0.5,1,1.8,0.4,2.5c0,0.1-0.2,0.3-0.5,0.7c-0.5,0.7-1.7,2.2-3.5,4c-0.2,0.2-0.4,0.4-0.6,0.6    c-1.9,1.8-3.3,2.7-3.5,2.8c0,0-0.1,0.1-0.1,0.1c-0.9,0.5-2,0.1-2.5-0.5c-0.3-0.3-1-1-1.1-1c0,0,0.1-0.2,0.1-0.2l4.9-5l4.8-4.9    c0,0,0.3-0.2,0.3-0.2C244.5,78.6,245.2,79.3,245.5,79.7z"></path>			<path class="st44" d="M245.5,79.7c0.5,0.5,1,1.7,0.4,2.4c0,0.1-0.2,0.3-0.5,0.7c-0.5,0.6-1.7,2.2-3.4,4c-0.2,0.2-0.4,0.4-0.6,0.6    c-1.9,1.8-3.3,2.7-3.5,2.8c0,0-0.1,0-0.1,0.1c-0.9,0.5-2,0.1-2.5-0.5c-0.3-0.3-1-1-1-1c0,0,0.1-0.2,0.1-0.2l4.9-4.9l4.8-4.9    c0,0,0.2-0.2,0.3-0.2C244.5,78.6,245.2,79.4,245.5,79.7z"></path>			<path class="st45" d="M245.5,79.7c0.5,0.5,1,1.7,0.4,2.4c0,0.1-0.2,0.3-0.5,0.7c-0.5,0.6-1.6,2.2-3.4,3.9    c-0.2,0.2-0.4,0.4-0.6,0.6c-1.9,1.8-3.2,2.7-3.5,2.8c0,0-0.1,0-0.1,0.1c-0.9,0.5-1.9,0.1-2.5-0.5c-0.3-0.3-1-1-1-1    c0,0,0.1-0.2,0.1-0.2l4.8-4.9l4.8-4.8c0,0,0.2-0.2,0.3-0.2C244.5,78.6,245.2,79.4,245.5,79.7z"></path>			<path class="st46" d="M245.5,79.7c0.5,0.5,1,1.7,0.4,2.4c0,0.1-0.2,0.3-0.5,0.6c-0.5,0.6-1.6,2.2-3.4,3.9    c-0.2,0.2-0.4,0.4-0.6,0.6c-1.9,1.7-3.2,2.7-3.4,2.8c0,0-0.1,0-0.1,0.1c-0.9,0.5-1.9,0.1-2.4-0.5c-0.3-0.3-1-1-1-1    c0,0,0.1-0.2,0.1-0.2l4.8-4.9l4.8-4.8c0,0,0.2-0.2,0.3-0.2C244.4,78.6,245.2,79.4,245.5,79.7z"></path>			<path class="st47" d="M245.5,79.7c0.5,0.5,1,1.7,0.4,2.4c0,0.1-0.2,0.3-0.5,0.6c-0.5,0.6-1.6,2.2-3.4,3.9    c-0.2,0.2-0.4,0.4-0.6,0.6c-1.9,1.7-3.2,2.7-3.4,2.8c0,0-0.1,0-0.1,0.1c-0.9,0.5-1.9,0.1-2.4-0.5c-0.3-0.3-1-0.9-1-1    c0,0,0.1-0.2,0.1-0.2l4.8-4.8l4.7-4.8c0,0,0.2-0.2,0.3-0.2C244.4,78.7,245.2,79.4,245.5,79.7z"></path>			<path class="st48" d="M245.5,79.7c0.5,0.5,1,1.7,0.4,2.4c0,0.1-0.2,0.3-0.5,0.6c-0.5,0.6-1.6,2.1-3.3,3.9    c-0.2,0.2-0.4,0.4-0.6,0.6c-1.8,1.7-3.2,2.6-3.4,2.7c0,0-0.1,0-0.1,0.1c-0.9,0.5-1.9,0.1-2.4-0.5c-0.3-0.3-0.9-0.9-1-1    c0,0,0.1-0.2,0.1-0.2l4.8-4.8l4.7-4.8c0,0,0.2-0.2,0.3-0.1C244.4,78.7,245.2,79.4,245.5,79.7z"></path>			<path class="st49" d="M245.5,79.7c0.5,0.5,1,1.7,0.4,2.4c0,0.1-0.2,0.3-0.5,0.6c-0.5,0.6-1.5,2.1-3.3,3.9    c-0.2,0.2-0.4,0.4-0.6,0.6c-1.8,1.7-3.1,2.6-3.4,2.7c0,0-0.1,0-0.1,0.1c-0.9,0.4-1.9,0.1-2.4-0.5c-0.3-0.3-0.9-0.9-1-1    c0,0,0.1-0.2,0.1-0.2l4.7-4.8l4.7-4.7c0,0,0.2-0.2,0.3-0.1C244.4,78.7,245.2,79.4,245.5,79.7z"></path>			<path class="st50" d="M245.5,79.7c0.5,0.5,1,1.7,0.4,2.4c0,0.1-0.2,0.3-0.5,0.6c-0.5,0.6-1.5,2.1-3.3,3.8    c-0.2,0.2-0.4,0.4-0.6,0.6c-1.8,1.7-3.1,2.6-3.4,2.7c0,0-0.1,0-0.1,0.1c-0.9,0.4-1.9,0.1-2.4-0.5c-0.3-0.3-0.9-0.9-1-1    c0,0,0.1-0.2,0.1-0.2l4.7-4.8l4.6-4.7c0,0,0.2-0.2,0.3-0.1C244.4,78.7,245.1,79.4,245.5,79.7z"></path>			<path class="st51" d="M245.4,79.8c0.5,0.5,0.9,1.7,0.4,2.3c0,0.1-0.2,0.3-0.5,0.6c-0.5,0.6-1.5,2.1-3.3,3.8    c-0.2,0.2-0.4,0.4-0.6,0.6c-1.8,1.7-3.1,2.6-3.3,2.7c0,0-0.1,0-0.1,0.1c-0.9,0.4-1.9,0.1-2.4-0.5c-0.3-0.3-0.9-0.9-1-1    c0,0,0.1-0.2,0.1-0.2l4.7-4.7l4.6-4.7c0,0,0.2-0.2,0.3-0.1C244.4,78.7,245.1,79.4,245.4,79.8z"></path>			<path class="st52" d="M245.4,79.8c0.5,0.5,0.9,1.6,0.4,2.3c0,0.1-0.2,0.3-0.4,0.6c-0.5,0.6-1.5,2.1-3.2,3.8    c-0.2,0.2-0.4,0.4-0.6,0.5c-1.8,1.7-3.1,2.5-3.3,2.7c0,0-0.1,0-0.1,0.1c-0.9,0.4-1.8,0.1-2.4-0.5c-0.3-0.3-0.9-0.9-1-1    c0,0,0.1-0.2,0.1-0.2l4.6-4.7l4.6-4.6c0,0,0.2-0.2,0.3-0.1C244.4,78.8,245.1,79.5,245.4,79.8z"></path>			<path class="st53" d="M245.4,79.8c0.5,0.5,0.9,1.6,0.4,2.3c0,0.1-0.2,0.3-0.4,0.6c-0.5,0.5-1.5,2-3.2,3.8    c-0.2,0.2-0.4,0.4-0.6,0.5c-1.8,1.7-3,2.5-3.3,2.6c0,0-0.1,0-0.1,0.1c-0.9,0.4-1.8,0.1-2.3-0.5c-0.3-0.3-0.9-0.9-1-1    c0,0,0.1-0.2,0.1-0.2l4.6-4.7l4.5-4.6c0,0,0.2-0.2,0.3-0.1C244.4,78.8,245.1,79.5,245.4,79.8z"></path>			<path class="st54" d="M245.4,79.8c0.5,0.5,0.9,1.6,0.4,2.3c0,0.1-0.2,0.3-0.4,0.6c-0.4,0.5-1.4,2-3.2,3.7    c-0.2,0.2-0.4,0.4-0.6,0.5c-1.7,1.6-3,2.5-3.3,2.6c0,0-0.1,0-0.1,0.1c-0.9,0.4-1.8,0.1-2.3-0.5c-0.3-0.3-0.9-0.9-1-1    c0,0,0.1-0.2,0.1-0.2l4.6-4.6l4.5-4.6c0,0,0.2-0.2,0.3-0.1C244.4,78.8,245.1,79.5,245.4,79.8z"></path>			<path class="st55" d="M245.4,79.8c0.5,0.5,0.9,1.6,0.4,2.3c0,0.1-0.2,0.3-0.4,0.6c-0.4,0.5-1.4,2-3.2,3.7    c-0.2,0.2-0.4,0.4-0.6,0.5c-1.7,1.6-3,2.5-3.3,2.6c0,0-0.1,0-0.1,0.1c-0.9,0.4-1.8,0.1-2.3-0.5c-0.3-0.3-0.9-0.9-1-1    c0,0,0.1-0.2,0.1-0.2l4.5-4.6l4.5-4.6c0,0,0.2-0.2,0.3-0.1C244.4,78.8,245.1,79.5,245.4,79.8z"></path>			<path class="st56" d="M245.4,79.8c0.5,0.5,0.9,1.6,0.4,2.3c0,0.1-0.2,0.3-0.4,0.6c-0.4,0.5-1.4,2-3.1,3.7    c-0.2,0.2-0.4,0.4-0.6,0.5c-1.7,1.6-3,2.5-3.3,2.6c0,0-0.1,0-0.1,0.1c-0.9,0.4-1.8,0.1-2.3-0.5c-0.3-0.3-0.9-0.9-1-1    c0,0,0.1-0.2,0.1-0.2l4.5-4.6l4.5-4.5c0,0,0.2-0.2,0.3-0.1C244.4,78.8,245.1,79.5,245.4,79.8z"></path>			<path class="st57" d="M245.4,79.8c0.5,0.5,0.9,1.6,0.4,2.3c0,0.1-0.2,0.3-0.4,0.6c-0.4,0.5-1.4,2-3.1,3.7    c-0.2,0.2-0.4,0.4-0.6,0.5c-1.7,1.6-2.9,2.4-3.2,2.6c0,0-0.1,0-0.1,0.1c-0.9,0.4-1.8,0-2.3-0.5c-0.3-0.3-0.9-0.9-1-1    c0,0,0.1-0.2,0.1-0.2l4.5-4.6l4.4-4.5c0,0,0.2-0.1,0.3-0.1C244.4,78.9,245.1,79.5,245.4,79.8z"></path>			<path class="st57" d="M245.4,79.8c0.5,0.5,0.9,1.6,0.4,2.2c0,0.1-0.2,0.3-0.4,0.6c-0.4,0.5-1.4,2-3.1,3.7    c-0.2,0.2-0.4,0.4-0.6,0.5c-1.7,1.6-2.9,2.4-3.2,2.5c0,0-0.1,0-0.1,0.1c-0.8,0.4-1.8,0-2.3-0.5c-0.3-0.3-0.9-0.9-1-1    c0,0,0.1-0.2,0.1-0.2l4.4-4.5l4.4-4.5c0,0,0.2-0.1,0.3-0.1C244.4,78.9,245.1,79.5,245.4,79.8z"></path>			<path class="st58" d="M245.3,79.8c0.5,0.5,0.9,1.6,0.4,2.2c0,0.1-0.2,0.3-0.4,0.6c-0.4,0.5-1.3,1.9-3.1,3.6    c-0.2,0.2-0.4,0.4-0.5,0.5c-1.7,1.6-2.9,2.4-3.2,2.5c0,0-0.1,0-0.1,0.1c-0.8,0.4-1.8,0-2.2-0.5c-0.3-0.3-0.9-0.9-1-1    c0,0,0-0.2,0-0.2l4.4-4.5l4.4-4.4c0,0,0.2-0.1,0.2-0.1C244.4,78.9,245.1,79.6,245.3,79.8z"></path>			<path class="st59" d="M245.3,79.9c0.5,0.5,0.9,1.6,0.4,2.2c0,0.1-0.2,0.3-0.4,0.6c-0.4,0.5-1.3,1.9-3,3.6    c-0.2,0.2-0.4,0.4-0.5,0.5c-1.7,1.6-2.9,2.4-3.2,2.5c0,0-0.1,0-0.1,0.1c-0.8,0.4-1.7,0-2.2-0.5c-0.3-0.3-0.9-0.8-0.9-0.9    c0,0,0-0.2,0-0.2l4.4-4.5l4.3-4.4c0,0,0.2-0.1,0.2-0.1C244.4,78.9,245.1,79.6,245.3,79.9z"></path>			<path class="st60" d="M245.3,79.9c0.5,0.5,0.9,1.5,0.4,2.2c0,0.1-0.2,0.3-0.4,0.6c-0.4,0.5-1.3,1.9-3,3.6    c-0.2,0.2-0.4,0.3-0.5,0.5c-1.6,1.5-2.8,2.3-3.2,2.5c0,0-0.1,0-0.1,0.1c-0.8,0.4-1.7,0-2.2-0.5c-0.3-0.3-0.8-0.8-0.9-0.9    c0,0,0-0.2,0-0.2l4.3-4.4l4.3-4.4c0,0,0.2-0.1,0.2-0.1C244.4,78.9,245,79.6,245.3,79.9z"></path>			<path class="st61" d="M245.3,79.9c0.4,0.5,0.9,1.5,0.4,2.2c0,0.1-0.2,0.3-0.4,0.6c-0.4,0.5-1.3,1.9-3,3.6    c-0.2,0.2-0.4,0.3-0.5,0.5c-1.6,1.5-2.8,2.3-3.1,2.5c0,0-0.1,0-0.1,0.1c-0.8,0.4-1.7,0-2.2-0.5c-0.3-0.3-0.8-0.8-0.9-0.9    c0-0.1,0-0.2,0-0.2l4.3-4.4l4.3-4.4c0,0,0.2-0.1,0.2-0.1C244.4,79,245,79.6,245.3,79.9z"></path>			<path class="st62" d="M245.3,79.9c0.4,0.5,0.9,1.5,0.4,2.2c0,0.1-0.2,0.3-0.4,0.6c-0.4,0.4-1.2,1.9-3,3.6    c-0.2,0.2-0.4,0.3-0.5,0.5c-1.6,1.5-2.8,2.3-3.1,2.4c0,0-0.1,0-0.1,0.1c-0.8,0.4-1.7,0-2.2-0.5c-0.3-0.3-0.8-0.8-0.9-0.9    c0-0.1,0-0.2,0-0.2l4.3-4.4l4.2-4.3c0,0,0.2-0.1,0.2-0.1C244.4,79,245,79.6,245.3,79.9z"></path>			<path class="st63" d="M245.3,79.9c0.4,0.4,0.9,1.5,0.4,2.2c0,0.1-0.2,0.3-0.4,0.6c-0.4,0.4-1.2,1.8-2.9,3.5    c-0.2,0.2-0.4,0.3-0.5,0.5c-1.6,1.5-2.8,2.3-3.1,2.4c0,0-0.1,0-0.1,0.1c-0.8,0.4-1.7,0-2.2-0.5c-0.3-0.3-0.8-0.8-0.9-0.9    c-0.1-0.1,0-0.2,0-0.2l4.3-4.3l4.2-4.3c0,0,0.2-0.1,0.2-0.1C244.4,79,245,79.6,245.3,79.9z"></path>			<path class="st64" d="M245.3,79.9c0.4,0.4,0.9,1.5,0.4,2.1c0,0.1-0.2,0.3-0.4,0.6c-0.4,0.4-1.2,1.8-2.9,3.5    c-0.2,0.2-0.3,0.3-0.5,0.5c-1.6,1.5-2.8,2.3-3.1,2.4c0,0-0.1,0-0.1,0.1c-0.8,0.4-1.7,0-2.2-0.5c-0.3-0.3-0.8-0.8-0.9-0.9    c-0.1-0.1,0-0.2,0-0.2l4.2-4.3l4.2-4.3c0,0,0.2-0.1,0.2-0.1C244.4,79,245,79.6,245.3,79.9z"></path>			<path class="st65" d="M245.3,79.9c0.4,0.4,0.9,1.5,0.4,2.1c0,0.1-0.2,0.3-0.4,0.6c-0.3,0.4-1.2,1.8-2.9,3.5    c-0.2,0.2-0.3,0.3-0.5,0.5c-1.6,1.5-2.7,2.2-3.1,2.4c0,0-0.1,0-0.1,0.1c-0.8,0.4-1.7,0-2.1-0.5c-0.3-0.3-0.8-0.8-0.9-0.9    c-0.1-0.1,0-0.2,0-0.2l4.2-4.3L244,79c0,0,0.2-0.1,0.2-0.1C244.4,79,245,79.6,245.3,79.9z"></path>			<path class="st66" d="M245.3,79.9c0.4,0.4,0.8,1.5,0.4,2.1c0,0.1-0.2,0.3-0.4,0.6c-0.3,0.4-1.2,1.8-2.9,3.5    c-0.2,0.2-0.3,0.3-0.5,0.5c-1.6,1.5-2.7,2.2-3.1,2.4c0,0-0.1,0-0.1,0.1c-0.8,0.4-1.6,0-2.1-0.5c-0.3-0.3-0.8-0.8-0.9-0.9    c-0.1-0.1,0-0.2,0-0.2l4.2-4.3L244,79c0,0,0.2-0.1,0.2,0C244.4,79,245,79.7,245.3,79.9z"></path>			<path class="st67" d="M245.2,79.9c0.4,0.4,0.7,1.4,0.4,2.1c0,0.1-0.2,0.3-0.4,0.6c-0.3,0.4-1.1,1.8-2.8,3.4    c-0.2,0.2-0.3,0.3-0.5,0.5c-1.5,1.4-2.7,2.2-3,2.3c0,0-0.1,0-0.1,0.1c-0.8,0.4-1.6,0-2.1-0.5c-0.3-0.3-0.8-0.8-0.9-0.9    c-0.1-0.1,0-0.2,0-0.2l4.1-4.2L244,79c0,0,0.2-0.1,0.2,0C244.4,79.1,245,79.7,245.2,79.9z"></path>			<path class="st68" d="M245.2,80c0.4,0.4,0.7,1.4,0.4,2.1c0,0.1-0.2,0.3-0.4,0.6c-0.3,0.4-1.1,1.7-2.8,3.4    c-0.2,0.2-0.3,0.3-0.5,0.5c-1.5,1.4-2.7,2.2-3,2.3c0,0-0.1,0-0.1,0.1c-0.8,0.3-1.6,0-2.1-0.5c-0.3-0.3-0.8-0.8-0.9-0.9    c-0.1-0.1,0-0.2,0-0.2l4.1-4.2L244,79c0,0,0.2-0.1,0.2,0C244.4,79.1,245,79.7,245.2,80z"></path>			<path class="st69" d="M245.2,80c0.4,0.4,0.7,1.4,0.4,2.1c0,0.1-0.2,0.3-0.4,0.6c-0.3,0.4-1.1,1.7-2.8,3.4    c-0.2,0.2-0.3,0.3-0.5,0.5c-1.5,1.4-2.6,2.2-3,2.3c0,0-0.1,0-0.1,0.1c-0.8,0.3-1.6,0-2.1-0.5c-0.3-0.3-0.8-0.8-0.9-0.9    c-0.1-0.1,0-0.2,0-0.2l4.1-4.2l4-4.1c0,0,0.2-0.1,0.2,0C244.4,79.1,245,79.7,245.2,80z"></path>			<path class="st70" d="M245.2,80c0.4,0.4,0.7,1.4,0.4,2.1c0,0.1-0.2,0.3-0.4,0.6c-0.3,0.4-1.1,1.7-2.8,3.4    c-0.2,0.2-0.3,0.3-0.5,0.5c-1.5,1.4-2.6,2.1-3,2.3c0,0-0.1,0-0.1,0c-0.8,0.3-1.6,0-2.1-0.5c-0.3-0.3-0.8-0.8-0.9-0.9    c-0.1-0.1,0-0.2,0-0.2l4-4.1l4-4.1c0,0,0.2-0.1,0.2,0C244.4,79.1,244.9,79.7,245.2,80z"></path>			<path class="st71" d="M245.2,80c0.4,0.4,0.7,1.4,0.4,2c0,0.1-0.2,0.3-0.4,0.6c-0.3,0.4-1.1,1.7-2.7,3.4c-0.2,0.2-0.3,0.3-0.5,0.5    c-1.5,1.4-2.6,2.1-3,2.3c0,0-0.1,0-0.1,0c-0.8,0.3-1.6,0-2-0.5c-0.3-0.3-0.8-0.8-0.9-0.9c-0.1-0.1,0-0.2,0-0.2l4-4.1l4-4.1    c0,0,0.2-0.1,0.2,0C244.4,79.1,244.9,79.7,245.2,80z"></path>			<path class="st72" d="M245.2,80c0.4,0.4,0.7,1.4,0.4,2c0,0.1-0.2,0.3-0.4,0.6c-0.3,0.3-1,1.7-2.7,3.3c-0.2,0.2-0.3,0.3-0.5,0.5    c-1.5,1.4-2.6,2.1-2.9,2.2c0,0-0.1,0-0.1,0c-0.8,0.3-1.6,0-2-0.5c-0.3-0.3-0.7-0.8-0.9-0.9c-0.1-0.1,0-0.2,0-0.2l4-4.1L244,79    c0,0,0.2-0.1,0.2,0C244.4,79.2,244.9,79.7,245.2,80z"></path>			<path class="st73" d="M245.2,80c0.4,0.4,0.7,1.3,0.4,2c0,0.1-0.2,0.3-0.4,0.6c-0.3,0.3-1,1.7-2.7,3.3c-0.2,0.2-0.3,0.3-0.5,0.5    c-1.4,1.4-2.5,2.1-2.9,2.2c0,0-0.1,0-0.1,0c-0.8,0.3-1.5,0-2-0.5c-0.2-0.3-0.7-0.7-0.9-0.9c-0.1-0.1,0-0.2,0-0.2l3.9-4.1l3.9-4    c0,0,0.2-0.1,0.2,0C244.4,79.2,244.9,79.8,245.2,80z"></path>			<path class="st74" d="M245.2,80c0.4,0.4,0.7,1.3,0.4,2c0,0.1-0.2,0.3-0.4,0.6c-0.3,0.3-1,1.6-2.7,3.3c-0.2,0.2-0.3,0.3-0.5,0.5    c-1.4,1.3-2.5,2-2.9,2.2c0,0-0.1,0-0.1,0c-0.8,0.3-1.5,0-2-0.5c-0.2-0.3-0.7-0.7-0.9-0.9c-0.1-0.1,0-0.2,0-0.2l3.9-4l3.9-4    c0,0,0.2-0.1,0.2,0C244.4,79.2,244.9,79.8,245.2,80z"></path>			<path class="st75" d="M245.1,80c0.4,0.4,0.7,1.3,0.4,2c0,0.1-0.2,0.3-0.4,0.6c-0.3,0.3-1,1.6-2.6,3.3c-0.2,0.2-0.3,0.3-0.5,0.5    c-1.4,1.3-2.5,2-2.9,2.2c0,0-0.1,0-0.1,0c-0.8,0.3-1.5,0-2-0.5c-0.2-0.3-0.7-0.7-0.8-0.9c-0.1-0.1,0-0.2,0-0.2l3.9-4l3.9-4    c0,0,0.2-0.1,0.2,0C244.4,79.2,244.9,79.8,245.1,80z"></path>			<path class="st76" d="M245.1,80c0.4,0.4,0.7,1.3,0.4,2c0,0.1-0.2,0.3-0.4,0.5c-0.3,0.3-0.9,1.6-2.6,3.3c-0.2,0.2-0.3,0.3-0.5,0.5    c-1.4,1.3-2.5,2-2.9,2.2c0,0-0.1,0-0.1,0c-0.8,0.3-1.5,0-2-0.5c-0.2-0.3-0.7-0.7-0.8-0.9c-0.1-0.1,0-0.2,0-0.2l3.9-4l3.8-3.9    c0,0,0.1-0.1,0.2,0C244.4,79.2,244.9,79.8,245.1,80z"></path>			<path class="st77" d="M245.1,80.1c0.4,0.4,0.7,1.3,0.4,2c0,0.1-0.1,0.3-0.3,0.5c-0.2,0.3-0.9,1.6-2.6,3.2    c-0.2,0.2-0.3,0.3-0.5,0.5c-1.4,1.3-2.4,2-2.9,2.1c0,0-0.1,0-0.1,0c-0.8,0.3-1.5,0-2-0.5c-0.2-0.2-0.7-0.7-0.8-0.8    c-0.1-0.1,0-0.2,0-0.2l3.8-3.9l3.8-3.9c0,0,0.1-0.1,0.2,0C244.3,79.3,244.9,79.8,245.1,80.1z"></path>			<path class="st78" d="M245.1,80.1c0.4,0.4,0.7,1.3,0.5,1.9c0,0.1-0.1,0.3-0.3,0.5c-0.2,0.3-0.9,1.6-2.6,3.2    c-0.2,0.2-0.3,0.3-0.5,0.5c-1.4,1.3-2.4,2-2.8,2.1c0,0-0.1,0-0.1,0c-0.8,0.3-1.5,0-1.9-0.5c-0.2-0.2-0.7-0.7-0.8-0.8    c-0.1-0.1,0-0.2,0-0.2l3.8-3.9l3.8-3.9c0,0,0.1-0.1,0.2,0C244.3,79.3,244.9,79.8,245.1,80.1z"></path>			<path class="st79" d="M245.1,80.1c0.4,0.4,0.7,1.3,0.5,1.9c0,0.1-0.1,0.3-0.3,0.5c-0.2,0.3-0.9,1.5-2.5,3.2    c-0.2,0.2-0.3,0.3-0.5,0.5c-1.4,1.3-2.4,1.9-2.8,2.1c0,0-0.1,0-0.1,0c-0.7,0.3-1.5,0-1.9-0.5c-0.2-0.2-0.7-0.7-0.8-0.8    c-0.1-0.1,0-0.2,0-0.2l3.8-3.9l3.7-3.9c0,0,0.1,0,0.2,0C244.3,79.3,244.9,79.8,245.1,80.1z"></path>			<path class="st80" d="M245.1,80.1c0.4,0.4,0.7,1.3,0.5,1.9c0,0.1-0.1,0.3-0.3,0.5c-0.2,0.3-0.9,1.5-2.5,3.2    c-0.2,0.1-0.3,0.3-0.5,0.4c-1.3,1.3-2.4,1.9-2.8,2.1c0,0-0.1,0-0.1,0c-0.7,0.3-1.5,0-1.9-0.5c-0.2-0.2-0.7-0.7-0.8-0.8    c-0.1-0.1,0-0.2,0-0.2l3.7-3.9l3.7-3.8c0,0,0.1,0,0.2,0C244.3,79.3,244.9,79.8,245.1,80.1z"></path>			<path class="st81" d="M245.1,80.1c0.4,0.4,0.7,1.3,0.5,1.9c0,0.1-0.1,0.3-0.3,0.5c-0.2,0.2-0.8,1.5-2.5,3.2    c-0.1,0.1-0.3,0.3-0.5,0.4c-1.3,1.2-2.3,1.9-2.8,2.1c0,0-0.1,0-0.1,0c-0.7,0.3-1.4,0-1.9-0.5c-0.2-0.2-0.7-0.7-0.8-0.8    c-0.1-0.1,0-0.2,0-0.2l3.7-3.8l3.7-3.8c0,0,0.1,0,0.2,0C244.3,79.3,244.8,79.9,245.1,80.1z"></path>			<path class="st82" d="M245.1,80.1c0.4,0.4,0.7,1.3,0.5,1.9c0,0.1-0.1,0.3-0.3,0.5c-0.2,0.2-0.8,1.5-2.5,3.1    c-0.1,0.1-0.3,0.3-0.5,0.4c-1.3,1.2-2.3,1.9-2.8,2c0,0-0.1,0-0.1,0c-0.7,0.3-1.4,0-1.9-0.5c-0.2-0.2-0.7-0.7-0.8-0.8    c-0.1-0.1-0.1-0.2-0.1-0.2l3.7-3.8l3.6-3.8c0,0,0.1,0,0.2,0C244.3,79.4,244.8,79.9,245.1,80.1z"></path>			<path class="st83" d="M245.1,80.1c0.4,0.4,0.7,1.2,0.5,1.9c0,0.1-0.1,0.3-0.3,0.5c-0.2,0.2-0.8,1.5-2.4,3.1    c-0.1,0.1-0.3,0.3-0.5,0.4c-1.3,1.2-2.3,1.9-2.7,2c0,0-0.1,0-0.1,0c-0.7,0.3-1.4,0-1.9-0.5c-0.2-0.2-0.7-0.7-0.8-0.8    c-0.1-0.1-0.1-0.2-0.1-0.2l3.6-3.8l3.6-3.7c0,0,0.1,0,0.2,0C244.3,79.4,244.8,79.9,245.1,80.1z"></path>			<path class="st84" d="M245,80.1c0.4,0.4,0.7,1.2,0.5,1.9c0,0.1-0.1,0.3-0.3,0.5c-0.2,0.2-0.8,1.4-2.4,3.1    c-0.1,0.1-0.3,0.3-0.4,0.4c-1.3,1.2-2.3,1.8-2.7,2c0,0-0.1,0-0.1,0c-0.7,0.3-1.4,0-1.8-0.5c-0.2-0.2-0.7-0.7-0.8-0.8    c-0.1-0.1-0.1-0.2-0.1-0.2l3.6-3.7l3.6-3.7c0,0,0.1,0,0.2,0C244.3,79.4,244.8,79.9,245,80.1z"></path>			<path class="st85" d="M245,80.1c0.4,0.4,0.7,1.2,0.5,1.8c0,0.1-0.1,0.3-0.3,0.5c-0.2,0.2-0.8,1.4-2.4,3.1    c-0.1,0.1-0.3,0.3-0.4,0.4c-1.3,1.2-2.2,1.8-2.7,2c0,0-0.1,0-0.1,0c-0.7,0.3-1.4,0-1.8-0.5c-0.2-0.2-0.6-0.7-0.8-0.8    c-0.1-0.1-0.1-0.2-0.1-0.2l3.6-3.7l3.6-3.7c0,0,0.1,0,0.2,0.1C244.3,79.4,244.8,79.9,245,80.1z"></path>			<path class="st86" d="M245,80.2c0.4,0.4,0.7,1.2,0.5,1.8c0,0.1-0.1,0.3-0.3,0.5c-0.2,0.2-0.7,1.4-2.4,3c-0.1,0.1-0.3,0.3-0.4,0.4    c-1.3,1.2-2.2,1.8-2.7,2c0,0-0.1,0-0.1,0c-0.7,0.3-1.4,0-1.8-0.5c-0.2-0.2-0.6-0.6-0.8-0.8c-0.1-0.1-0.1-0.2-0.1-0.2l3.5-3.7    l3.5-3.7c0,0,0.1,0,0.2,0.1C244.3,79.4,244.8,79.9,245,80.2z"></path>			<path class="st87" d="M245,80.2c0.4,0.4,0.7,1.2,0.5,1.8c0,0.1-0.1,0.3-0.3,0.5c-0.2,0.2-0.7,1.4-2.4,3c-0.1,0.1-0.3,0.3-0.4,0.4    c-1.2,1.2-2.2,1.8-2.7,1.9c0,0-0.1,0-0.1,0c-0.7,0.3-1.4,0-1.8-0.5c-0.2-0.2-0.6-0.6-0.8-0.8c-0.1-0.1-0.1-0.2-0.1-0.2l3.5-3.7    l3.5-3.6c0,0,0.1,0,0.2,0.1C244.3,79.5,244.8,79.9,245,80.2z"></path>			<path class="st88" d="M245,80.2c0.4,0.4,0.7,1.2,0.5,1.8c0,0.1-0.1,0.3-0.3,0.5c-0.1,0.2-0.7,1.4-2.3,3c-0.1,0.1-0.3,0.3-0.4,0.4    c-1.2,1.1-2.2,1.7-2.7,1.9c0,0-0.1,0-0.1,0c-0.7,0.2-1.3,0-1.8-0.5c-0.2-0.2-0.6-0.6-0.8-0.8c-0.1-0.1-0.1-0.2-0.1-0.2l3.5-3.6    l3.5-3.6c0,0,0.1,0,0.2,0.1C244.3,79.5,244.8,80,245,80.2z"></path>			<path class="st89" d="M245,80.2c0.4,0.4,0.7,1.2,0.5,1.8c0,0.1-0.1,0.3-0.3,0.5c-0.1,0.2-0.7,1.4-2.3,3c-0.1,0.1-0.3,0.3-0.4,0.4    c-1.2,1.1-2.1,1.7-2.6,1.9c0,0-0.1,0-0.1,0c-0.7,0.2-1.3,0-1.8-0.5c-0.2-0.2-0.6-0.6-0.8-0.8c-0.1-0.1-0.1-0.2-0.1-0.2l3.5-3.6    l3.4-3.6c0,0,0.1,0,0.2,0.1C244.3,79.5,244.8,80,245,80.2z"></path>			<path class="st90" d="M245,80.2c0.4,0.4,0.6,1.2,0.5,1.8c0,0.1-0.1,0.3-0.3,0.5c-0.1,0.2-0.6,1.3-2.3,3c-0.1,0.1-0.3,0.3-0.4,0.4    c-1.2,1.1-2.1,1.7-2.6,1.9c0,0-0.1,0-0.1,0c-0.7,0.2-1.3,0-1.8-0.5c-0.2-0.2-0.6-0.6-0.8-0.8c-0.1-0.1-0.1-0.2-0.1-0.2l3.4-3.6    l3.4-3.6c0,0,0.1,0,0.2,0.1C244.3,79.5,244.8,80,245,80.2z"></path>			<path class="st91" d="M245,80.2c0.4,0.4,0.6,1.2,0.5,1.8c0,0.1-0.1,0.3-0.3,0.5c-0.1,0.1-0.6,1.3-2.3,2.9    c-0.1,0.1-0.3,0.3-0.4,0.4c-1.2,1.1-2.1,1.7-2.6,1.9c0,0-0.1,0-0.1,0c-0.7,0.2-1.3,0-1.7-0.5c-0.2-0.2-0.6-0.6-0.8-0.8    c-0.1-0.1-0.1-0.2-0.1-0.2l3.4-3.5l3.4-3.5c0,0,0.1,0,0.2,0.1C244.3,79.5,244.7,80,245,80.2z"></path>			<path class="st92" d="M244.9,80.2c0.3,0.4,0.6,1.2,0.5,1.7c0,0.1-0.1,0.3-0.3,0.5c-0.1,0.1-0.6,1.3-2.2,2.9    c-0.1,0.1-0.3,0.3-0.4,0.4c-1.2,1.1-2.1,1.7-2.6,1.8c0,0-0.1,0-0.1,0c-0.7,0.2-1.3,0-1.7-0.5c-0.2-0.2-0.6-0.6-0.7-0.8    c-0.1-0.1-0.1-0.2-0.1-0.2l3.4-3.5l3.3-3.5c0,0,0.1,0,0.2,0.1C244.3,79.6,244.7,80,244.9,80.2z"></path>			<path class="st93" d="M244.9,80.2c0.3,0.4,0.6,1.1,0.5,1.7c0,0.1-0.1,0.3-0.3,0.5c-0.1,0.1-0.6,1.3-2.2,2.9    c-0.1,0.1-0.3,0.3-0.4,0.4c-1.1,1.1-2,1.6-2.6,1.8c0,0-0.1,0-0.1,0c-0.7,0.2-1.3,0-1.7-0.5c-0.2-0.2-0.6-0.6-0.7-0.8    c-0.1-0.1-0.1-0.2-0.1-0.2l3.3-3.5l3.3-3.5c0,0,0.1,0,0.2,0.1C244.3,79.6,244.7,80,244.9,80.2z"></path>			<path class="st94" d="M244.9,80.2c0.3,0.4,0.6,1.1,0.5,1.7c0,0.1-0.1,0.3-0.3,0.5c-0.1,0.1-0.6,1.3-2.2,2.9    c-0.1,0.1-0.3,0.3-0.4,0.4c-1.1,1.1-2,1.6-2.5,1.8c0,0-0.1,0-0.1,0c-0.7,0.2-1.3,0-1.7-0.5c-0.2-0.2-0.6-0.6-0.7-0.8    c-0.1-0.1-0.1-0.2-0.1-0.2l3.3-3.5l3.3-3.4c0,0,0.1,0,0.2,0.1C244.3,79.6,244.7,80,244.9,80.2z"></path>			<path class="st95" d="M244.9,80.3c0.3,0.4,0.6,1.1,0.5,1.7c0,0.2-0.1,0.3-0.3,0.5c-0.1,0.1-0.5,1.2-2.2,2.9    c-0.1,0.1-0.3,0.3-0.4,0.4c-1.1,1-2,1.6-2.5,1.8c0,0-0.1,0-0.1,0c-0.7,0.2-1.2,0-1.7-0.5c-0.2-0.2-0.6-0.6-0.7-0.7    c-0.1-0.1-0.1-0.2-0.1-0.2l3.3-3.4l3.3-3.4c0,0,0.1,0,0.2,0.1C244.3,79.6,244.7,80,244.9,80.3z"></path>			<path class="st96" d="M244.9,80.3c0.3,0.3,0.6,1.1,0.5,1.7c0,0.2-0.1,0.3-0.3,0.5c-0.1,0.1-0.5,1.2-2.1,2.8    c-0.1,0.1-0.3,0.3-0.4,0.4c-1.1,1-2,1.6-2.5,1.8c0,0-0.1,0-0.1,0c-0.7,0.2-1.2,0-1.7-0.5c-0.2-0.2-0.6-0.6-0.7-0.7    c-0.1-0.1-0.1-0.2-0.1-0.2l3.2-3.4l3.2-3.4c0,0,0.1,0,0.2,0.1C244.3,79.6,244.7,80.1,244.9,80.3z"></path>			<path class="st97" d="M244.9,80.3c0.3,0.3,0.6,1.1,0.5,1.7c0,0.2-0.1,0.3-0.3,0.5c-0.1,0.1-0.5,1.2-2.1,2.8    c-0.1,0.1-0.3,0.3-0.4,0.4c-1.1,1-1.9,1.6-2.5,1.7c0,0-0.1,0-0.1,0c-0.7,0.2-1.2,0-1.6-0.5c-0.2-0.2-0.5-0.6-0.7-0.7    c-0.1-0.1-0.1-0.2-0.1-0.2l3.2-3.4l3.2-3.4c0,0,0.1,0,0.2,0.1C244.3,79.7,244.7,80.1,244.9,80.3z"></path>			<path class="st98" d="M244.9,80.3c0.3,0.3,0.6,1.1,0.5,1.7c0,0.2-0.1,0.3-0.3,0.5c-0.1,0.1-0.5,1.2-2.1,2.8    c-0.1,0.1-0.3,0.3-0.4,0.4c-1.1,1-1.9,1.5-2.5,1.7c0,0-0.1,0-0.1,0c-0.7,0.2-1.2,0-1.6-0.5c-0.2-0.2-0.5-0.6-0.7-0.7    c-0.1-0.1-0.1-0.2-0.1-0.2l3.2-3.3l3.2-3.3c0,0,0.1,0,0.2,0.1C244.3,79.7,244.7,80.1,244.9,80.3z"></path>			<path class="st99" d="M244.9,80.3c0.3,0.3,0.6,1.1,0.5,1.6c0,0.2-0.1,0.3-0.3,0.5c-0.1,0.1-0.5,1.2-2.1,2.8    c-0.1,0.1-0.3,0.3-0.4,0.4c-1.1,1-1.9,1.5-2.5,1.7c0,0-0.1,0-0.1,0c-0.7,0.2-1.2,0-1.6-0.5c-0.2-0.2-0.5-0.5-0.7-0.7    c-0.1-0.1-0.1-0.2-0.1-0.2l3.1-3.3l3.1-3.3c0,0,0.1,0,0.2,0.1C244.3,79.7,244.7,80.1,244.9,80.3z"></path>			<path class="st100" d="M244.9,80.3c0.3,0.3,0.6,1.1,0.5,1.6c0,0.2-0.1,0.3-0.3,0.5c0,0.1-0.4,1.1-2,2.7c-0.1,0.1-0.3,0.2-0.4,0.4    c-1,1-1.9,1.5-2.4,1.7c0,0-0.1,0-0.1,0c-0.7,0.2-1.2,0-1.6-0.5c-0.2-0.2-0.5-0.5-0.7-0.7c-0.1-0.1-0.1-0.2-0.1-0.2l3.1-3.3    l3.1-3.3c0,0,0.1,0,0.2,0.1C244.3,79.7,244.7,80.1,244.9,80.3z"></path>			<path class="st101" d="M244.8,80.3c0.3,0.3,0.6,1.1,0.5,1.6c0,0.2-0.1,0.3-0.3,0.5c0,0-0.4,1.1-2,2.7c-0.1,0.1-0.3,0.2-0.4,0.4    c-1,1-1.8,1.5-2.4,1.7c0,0-0.1,0-0.1,0c-0.7,0.2-1.2,0-1.6-0.5c-0.2-0.2-0.5-0.5-0.7-0.7c-0.1-0.1-0.1-0.2-0.1-0.2l3.1-3.2    l3.1-3.2c0,0,0.1,0,0.2,0.1C244.3,79.7,244.7,80.1,244.8,80.3z"></path>			<path class="st102" d="M244.8,80.3c0.3,0.3,0.6,1,0.5,1.6c0,0.2-0.1,0.3-0.3,0.5c0,0-0.4,1.1-2,2.7c-0.1,0.1-0.2,0.2-0.4,0.4    c-1,0.9-1.8,1.5-2.4,1.6c0,0-0.1,0-0.1,0c-0.6,0.2-1.2,0-1.6-0.5c-0.2-0.2-0.5-0.5-0.7-0.7c-0.1-0.1-0.1-0.2-0.1-0.2l3-3.2l3-3.2    c0,0,0.1,0.1,0.2,0.1C244.3,79.8,244.6,80.1,244.8,80.3z"></path>			<path class="st103" d="M244.8,80.4c0.3,0.3,0.6,1,0.5,1.6c0,0.2-0.1,0.3-0.3,0.5c0,0-0.4,1.1-2,2.7c-0.1,0.1-0.2,0.2-0.4,0.4    c-1,0.9-1.8,1.4-2.4,1.6c0,0-0.1,0-0.1,0c-0.6,0.2-1.1,0-1.6-0.5c-0.2-0.2-0.5-0.5-0.7-0.7c-0.1-0.1-0.1-0.2-0.1-0.2l3-3.2l3-3.2    c0,0,0.1,0.1,0.2,0.2C244.3,79.8,244.6,80.2,244.8,80.4z"></path>			<path class="st104" d="M244.8,80.4c0.3,0.3,0.6,1,0.5,1.6c0,0.2-0.1,0.3-0.2,0.5c0,0-0.3,1.1-1.9,2.7c-0.1,0.1-0.2,0.2-0.4,0.4    c-1,0.9-1.8,1.4-2.4,1.6c0,0-0.1,0-0.1,0c-0.6,0.2-1.1,0-1.5-0.5c-0.2-0.2-0.5-0.5-0.7-0.7c-0.1-0.1-0.1-0.2-0.1-0.2l3-3.2l3-3.2    c0,0,0.1,0.1,0.2,0.2C244.3,79.8,244.6,80.2,244.8,80.4z"></path>			<path class="st105" d="M238.8,86.5c-0.3-0.3-0.8-0.8-0.8-0.8l3-3.1l3-3.1c0,0,0.6,0.7,0.9,0.9c0.4,0.4,0.8,1.5,0.2,2    c0,0-0.4,1.2-2.3,3c-1,0.9-1.8,1.5-2.4,1.6C239.7,87.2,239.2,87,238.8,86.5z"></path>		</g>					<linearGradient id="SVGID_00000137095810268424626880000007175025401073125506_" gradientUnits="userSpaceOnUse" x1="233.8461" y1="91.9301" x2="246.2009" y2="79.5753">			<stop offset="3.680980e-02" style="stop-color:#929497"></stop>			<stop offset="0.1496" style="stop-color:#989A9D;stop-opacity:0.7373"></stop>			<stop offset="0.4663" style="stop-color:#A6A8AB;stop-opacity:0"></stop>		</linearGradient>		<path style="fill:url(#SVGID_00000137095810268424626880000007175025401073125506_);" d="M236.6,91.9c-1.1,0.8-2.5,0.2-3.2-0.4   c-0.4-0.4-1.3-1.2-1.3-1.2l12.4-12.3c0,0,1,1,1.4,1.4c0.6,0.6,1.2,2.1,0.4,2.9c0,0-2.1,2.7-4.9,5.4   C238.6,90.4,236.6,91.9,236.6,91.9z"></path>		<g>							<linearGradient id="SVGID_00000170250461422997370300000015023923573686921617_" gradientUnits="userSpaceOnUse" x1="204.2861" y1="99.6867" x2="204.2861" y2="-2.3897">				<stop offset="0" style="stop-color:#BBBDBF"></stop>				<stop offset="0.1695" style="stop-color:#C1C3C5"></stop>				<stop offset="0.3949" style="stop-color:#D2D3D4"></stop>				<stop offset="0.6507" style="stop-color:#EDEDEE"></stop>				<stop offset="0.681" style="stop-color:#F1F1F2"></stop>			</linearGradient>			<path style="fill:url(#SVGID_00000170250461422997370300000015023923573686921617_);" d="M204.3,99.1c-13,0-25.2-5-34.5-14    c-9.3-9.1-14.6-21.2-14.9-34.2c-0.3-13.2,4.5-25.8,13.6-35.4c9.1-9.6,21.4-15,34.6-15.4c0.4,0,0.8,0,1.3,0    c26.6,0,48.8,21.6,49.5,48.3c0.3,13.2-4.5,25.8-13.6,35.4c-9.1,9.6-21.4,15-34.6,15.4C205.1,99.1,204.7,99.1,204.3,99.1    C204.3,99.1,204.3,99.1,204.3,99.1z M204.1,7.5c-0.4,0-0.7,0-1.1,0c-23.4,0.6-41.9,20.1-41.3,43.4c0.6,23.2,19.2,41.3,42.4,41.3    c0.4,0,0.7,0,1.1,0c11.3-0.3,21.8-5,29.7-13.2c7.8-8.2,11.9-19,11.7-30.3C245.9,25.6,227.3,7.5,204.1,7.5z"></path>			<path class="st10" d="M204.3,0.2c26.7,0,48.7,21.3,49.4,48.2c0.7,27.3-20.9,49.9-48.1,50.6c-0.4,0-0.8,0-1.3,0    c-26.7,0-48.7-21.3-49.3-48.2C154.2,23.6,175.8,0.9,203,0.2C203.5,0.2,203.9,0.2,204.3,0.2 M204.1,92.4c0.4,0,0.7,0,1.1,0    c23.5-0.6,42-20.1,41.4-43.5C246,25.7,227.1,7.4,204.1,7.4c-0.4,0-0.7,0-1.1,0c-23.5,0.6-42,20.1-41.4,43.5    C162.2,74,181.1,92.4,204.1,92.4 M204.3,0c-0.4,0-0.8,0-1.3,0c-13.2,0.3-25.6,5.8-34.7,15.4c-9.1,9.6-14,22.2-13.6,35.4    c0.3,13,5.6,25.2,15,34.3c9.3,9.1,21.6,14.1,34.6,14.1c0.4,0,0.8,0,1.3,0c13.2-0.3,25.6-5.8,34.7-15.4c9.1-9.6,14-22.2,13.6-35.4    c-0.3-13-5.6-25.2-15-34.3C229.6,5,217.3,0,204.3,0L204.3,0z M204.1,92.1c-22.7,0-41.7-18.5-42.3-41.2    C161.2,27.6,179.7,8.2,203,7.6c0.4,0,0.7,0,1.1,0c23.1,0,41.7,18.1,42.2,41.2c0.3,11.3-3.8,22-11.6,30.2    c-7.8,8.2-18.3,12.8-29.6,13.1C204.8,92.1,204.4,92.1,204.1,92.1L204.1,92.1z"></path>		</g>					<linearGradient id="SVGID_00000155843402168460435570000010860428795847667335_" gradientUnits="userSpaceOnUse" x1="203.9855" y1="5.8002" x2="203.9855" y2="94.0824">			<stop offset="0" style="stop-color:#D0D2D3"></stop>			<stop offset="1" style="stop-color:#FFFFFF"></stop>		</linearGradient>					<path style="fill:url(#SVGID_00000155843402168460435570000010860428795847667335_);stroke:#BBBDBF;stroke-width:0.1111;stroke-miterlimit:10;" d="   M248,48.5C247.4,24.2,227.2,5,202.9,5.6c-24.3,0.6-43.5,20.8-42.9,45.1c0.6,24.3,20.8,43.5,45.1,42.9   C229.4,93,248.6,72.8,248,48.5z M205.2,91.9c-23.3,0.6-42.7-17.8-43.2-41.1c-0.6-23.3,17.8-42.7,41.1-43.2   c23.3-0.6,42.7,17.8,43.3,41.1C247,72,228.5,91.4,205.2,91.9z"></path>					<linearGradient id="SVGID_00000026873025410962600290000013504198157083305604_" gradientUnits="userSpaceOnUse" x1="246.1578" y1="102.372" x2="255.8186" y2="92.0121">			<stop offset="0.6687" style="stop-color:#231F20"></stop>			<stop offset="0.7728" style="stop-color:#383637"></stop>			<stop offset="0.9151" style="stop-color:#4F4F51"></stop>			<stop offset="1" style="stop-color:#58595B"></stop>		</linearGradient>		<path style="fill:url(#SVGID_00000026873025410962600290000013504198157083305604_);" d="M245.8,102.1l0.5,0.5   c0,0,8.1-8.3,9.3-9.6c0.3-0.3,0.3-0.8,0-1c-0.2,0.2-0.3,0.3-0.3,0.3s-8.1,8.3-9.3,9.6C245.9,101.9,245.9,102,245.8,102.1z"></path>					<linearGradient id="SVGID_00000175308814704571590530000004299965264986140290_" gradientUnits="userSpaceOnUse" x1="252.2679" y1="96.953" x2="320.6353" y2="163.9363">			<stop offset="1.840490e-02" style="stop-color:#B8BDC1"></stop>			<stop offset="0.2143" style="stop-color:#A5A9AC"></stop>			<stop offset="0.4481" style="stop-color:#95989B"></stop>			<stop offset="0.7001" style="stop-color:#8C8E90"></stop>			<stop offset="1" style="stop-color:#898B8D"></stop>		</linearGradient>		<path style="fill:url(#SVGID_00000175308814704571590530000004299965264986140290_);" d="M257.9,92.8   c55.7,50.8,55.6,48.7,60.4,53.1c2.4,2.2,3.5,5,2,6.8c-1.1,1.3-12.9,13.1-13.4,13.4c-0.4,0.4,8.4-10.5,9.3-11.6   c1.9-2.2,1-5.4-0.7-7c-5.1-4.9-10.1-7.1-58-54.2c0,0-0.6-0.5-0.3-0.7C257.5,92.4,257.9,92.8,257.9,92.8z"></path>	</g></g></svg>